<?xml version="1.0" encoding="UTF-8" standalone="no"?>
<svg
   xmlns:dc="http://purl.org/dc/elements/1.1/"
   xmlns:cc="http://creativecommons.org/ns#"
   xmlns:rdf="http://www.w3.org/1999/02/22-rdf-syntax-ns#"
   xmlns:svg="http://www.w3.org/2000/svg"
   xmlns="http://www.w3.org/2000/svg"
   xmlns:sodipodi="http://sodipodi.sourceforge.net/DTD/sodipodi-0.dtd"
   xmlns:inkscape="http://www.inkscape.org/namespaces/inkscape"
   width="5mm"
   height="12.779886mm"
   viewBox="0 0 5 12.779886"
   version="1.1"
   id="svg8"
   inkscape:version="1.0.1 (c497b03c, 2020-09-10)"
   sodipodi:docname="arrow3.svg">
  <defs
     id="defs2" />
  <sodipodi:namedview
     id="base"
     pagecolor="#ffffff"
     bordercolor="#666666"
     borderopacity="1.0"
     inkscape:pageopacity="0.0"
     inkscape:pageshadow="2"
     inkscape:zoom="2.051659"
     inkscape:cx="47.342573"
     inkscape:cy="143.60627"
     inkscape:document-units="mm"
     inkscape:current-layer="layer1"
     inkscape:document-rotation="0"
     showgrid="false"
     inkscape:window-width="1252"
     inkscape:window-height="856"
     inkscape:window-x="34"
     inkscape:window-y="22"
     inkscape:window-maximized="0" />
  <metadata
     id="metadata5">
    <rdf:RDF>
      <cc:Work
         rdf:about="">
        <dc:format>image/svg+xml</dc:format>
        <dc:type
           rdf:resource="http://purl.org/dc/dcmitype/StillImage" />
        <dc:title />
      </cc:Work>
    </rdf:RDF>
  </metadata>
  <g
     inkscape:label="Layer 1"
     inkscape:groupmode="layer"
     id="layer1">
    <path
       id="path62"
       style="fill:#000000;stroke-width:0.0104629"
       d="M 0.2206225,6.3899669 C -0.0163242,6.2781259 -0.2374197,5.8841924 -0.1909869,5.5559025 -0.0735403,5.1962163 -0.2126831,4.8473612 -0.2068863,4.4665218 -0.1654348,4.0296259 -0.2604269,3.6320873 -0.2143343,3.2189892 -0.1984914,2.8155306 -0.2790779,2.4267199 -0.276913,2.0247308 -0.3082463,1.6122723 -0.3234026,1.184877 -0.3424172,0.78169132 -0.3697373,0.34673415 -0.4289134,-0.09832692 -0.3716038,-0.52859825 -0.4109713,-0.9152451 -0.3908433,-1.2972763 -0.4010892,-1.6857146 c -0.0611385,-0.3791206 -0.0206341,-0.7785509 -0.0879949,-1.1595189 0.0851157,-0.6464195 -0.2595635,0.1913298 -0.4636545,0.3124042 -0.1732689,0.3263935 -0.3063164,0.6596232 -0.4084185,1.0111234 -0.1270281,0.2787655 -0.2252122,0.6172436 -0.3189893,0.88946702 -0.037315,0.24133275 -0.3200894,0.60321298 -0.5910727,0.35461306 -0.1502285,0.2573378 -0.2542005,-0.35183353 -0.2233437,-0.40887314 0.1213216,-0.12485731 0.1319903,-0.45069224 0.2817782,-0.61485154 0.1464466,-0.3251857 0.2285241,-0.7175357 0.4175627,-1.0087631 0.1554217,-0.3134126 0.262364,-0.6259261 0.4510679,-0.9266271 0.1308213,-0.3312056 0.2168235,-0.6707945 0.3584478,-0.9946149 0.1040024,-0.3459769 0.2388745,-0.6978772 0.2721503,-1.0427334 0.0892367,-0.3375547 0.1397716,-0.724568 0.4374773,-0.9525617 0.2324798,-0.2528391 0.6013482,-0.1569147 0.8567014,-0.07671 0.1039674,0.2056768 0.1632347,0.3694608 0.1359861,0.6146828 0.1122745,0.3073201 0.1603885,0.7024557 0.2138922,0.9701184 0.0719789,0.3326398 0.2110889,0.6445479 0.2886148,0.970338 0.051622,0.2894912 0.1442011,0.606018 0.1997459,0.869571 0.1139054,0.389773 0.3317953,0.7777982 0.4660308,1.1720102 0.113534,0.2214515 0.1160677,0.4106322 0.3733773,0.3360142 0.2436047,0.2190818 0.1477166,0.48261444 0.2110253,0.76382305 C 2.6043542,-0.33110779 2.2727186,0.16433572 1.8877167,-0.0176744 1.5369074,-0.03750438 1.5979181,-0.32226082 1.5706274,-0.56454747 1.382548,-0.91308038 1.2439009,-1.2957991 1.061968,-1.6306815 0.9326522,-1.9451829 0.7977881,-2.275261 0.7117271,-2.6003253 c -0.0572645,-0.220153 -0.25134,-0.871615 -0.1999972,-0.3268326 -0.00633,0.6523913 -0.027499,1.3168729 -0.017729,1.97559048 -0.012138,0.48117608 -0.066536,0.96254017 -0.057775,1.44317736 -0.061256,0.370247 -0.00822,0.76939096 -0.045258,1.14990506 0.00617,0.5123263 0.017803,1.0103587 0.063006,1.5145178 0.034311,0.3434122 0.030947,0.7665021 0.066354,1.0566957 0.2583247,0.227836 0.00298,0.5000165 0.1104893,0.7350906 0.063466,0.3758243 0.014381,0.7245584 -0.081898,1.0906687 C 0.4921962,6.1917711 0.4200339,6.3929639 0.2206225,6.3899669 Z M 0.6165144,5.5702926 c -0.04236,-0.088381 -0.047019,0.055311 0,0 z M 0.2450359,1.8193858 c -0.036678,-0.055375 -0.024875,0.056499 0,0 z M -0.0165364,0.85591989 c -0.036559,-0.0465664 -0.037095,0.0558585 0,0 z M 0.6530887,-4.2125258 c -0.012654,-0.038254 -0.025804,0.037272 0,0 z M 0.4627879,-4.6023922 c -0.042565,-0.062443 -0.054727,0.076536 0,0 z" />
  </g>
</svg>
