<?xml version="1.0" encoding="UTF-8" standalone="no"?>
<svg
   xmlns:dc="http://purl.org/dc/elements/1.1/"
   xmlns:cc="http://creativecommons.org/ns#"
   xmlns:rdf="http://www.w3.org/1999/02/22-rdf-syntax-ns#"
   xmlns:svg="http://www.w3.org/2000/svg"
   xmlns="http://www.w3.org/2000/svg"
   xmlns:sodipodi="http://sodipodi.sourceforge.net/DTD/sodipodi-0.dtd"
   xmlns:inkscape="http://www.inkscape.org/namespaces/inkscape"
   width="5mm"
   height="9.8322344mm"
   viewBox="0 0 5 9.8322344"
   version="1.1"
   id="svg8"
   inkscape:version="1.0.1 (c497b03c, 2020-09-10)"
   sodipodi:docname="arrow2.svg">
  <defs
     id="defs2" />
  <sodipodi:namedview
     id="base"
     pagecolor="#ffffff"
     bordercolor="#666666"
     borderopacity="1.0"
     inkscape:pageopacity="0.0"
     inkscape:pageshadow="2"
     inkscape:zoom="5.9692698"
     inkscape:cx="19.461579"
     inkscape:cy="31.711899"
     inkscape:document-units="mm"
     inkscape:current-layer="layer1"
     inkscape:document-rotation="0"
     showgrid="false"
     inkscape:window-width="1252"
     inkscape:window-height="856"
     inkscape:window-x="30"
     inkscape:window-y="22"
     inkscape:window-maximized="0" />
  <metadata
     id="metadata5">
    <rdf:RDF>
      <cc:Work
         rdf:about="">
        <dc:format>image/svg+xml</dc:format>
        <dc:type
           rdf:resource="http://purl.org/dc/dcmitype/StillImage" />
        <dc:title />
      </cc:Work>
    </rdf:RDF>
  </metadata>
  <g
     inkscape:label="Layer 1"
     inkscape:groupmode="layer"
     id="layer1">
    <path
       id="path24"
       style="fill:#000000;stroke-width:0.0092511"
       d="m 0.07836577,4.911708 c -0.1641124,-0.02003 -0.5726748,-0.05612 -0.4839751,-0.294387 -0.3075507,-0.176138 -0.3777848,-0.563048 -0.3869577,-0.894623 -0.0835413,-0.439572 0.6050592,-0.380614 0.5115977,-0.759363 -0.0337153,-0.578539 -0.1180628,-1.158135 -0.1431233,-1.733793 -0.0458419,-0.325554 -0.0514743,-0.676791 -0.1147158,-1.006791 -0.0569052,-0.4261759 -0.0311366,-0.8592144 -0.045438,-1.2877662 0.0671569,-0.5098736 -0.1730508,0.1721898 -0.3151924,0.2562538 -0.14316207,0.2753903 -0.37867567,0.4562481 -0.54956167,0.7062836 -0.1677916,0.2501743 -0.3776902,0.4739778 -0.6177452,0.6667408 -0.056788,0.231048 -0.5913456,0.510372 -0.3868846,0.08248 0.1834122,-0.256194 0.1638068,-0.541008 0.3368237,-0.7849012 0.12776,-0.3665652 0.2978025,-0.7171393 0.4998722,-1.0483361 0.066236,-0.2781041 0.2168033,-0.5352823 0.3316656,-0.7752903 0.1630878,-0.2512352 0.2216155,-0.5390802 0.39548327,-0.7917731 0.1245199,-0.2833499 0.2249153,-0.5738317 0.3418944,-0.8701116 0.1337917,-0.3349606 0.2694442,-0.6729216 0.3499097,-1.0239482 0.1480441,-0.2640792 0.3425384,-0.3419458 0.58816,-0.1947876 0.2261802,0.3151167 0.254971,0.7346498 0.4099534,1.0887947 0.125457,0.2868294 0.20417803,0.5651817 0.31033963,0.8614977 0.1012067,0.3388608 0.2345722,0.6583532 0.3494732,0.9995986 0.1963685,0.315368 0.2033909,0.7215918 0.4346411,1.0088862 0.1674002,0.2723237 0.359659,0.4810447 0.4901343,0.7744818 C 2.5741785,0.1341695 2.4798276,0.410473 2.450565,0.63006 2.3169507,0.969565 2.066163,0.436248 1.8426728,0.36801 1.6462572,0.09762 1.4968023,-0.199436 1.2514297,-0.4316693 0.99485287,-0.6680519 0.81756657,-0.9801777 0.62025417,-1.2620339 0.51644687,-1.3860367 0.44144347,-1.6184307 0.45352657,-1.31105 c -0.015692,0.4559502 -0.047283,0.9090781 -0.030635,1.3651038 -2.35e-4,0.5273902 0.030589,1.0664782 -0.00716,1.5896972 0.059945,0.562367 -0.018071,1.136311 0.1044395,1.692067 0.2450515,0.157011 0.461203,0.364221 0.4028816,0.691907 -0.038386,0.308339 -0.130524,0.649501 -0.4501118,0.76786 -0.1203693,0.05195 -0.2600964,0.141828 -0.3945762,0.116123 z" />
  </g>
</svg>
