<?xml version="1.0" encoding="UTF-8" standalone="no"?>
<svg
   xmlns:dc="http://purl.org/dc/elements/1.1/"
   xmlns:cc="http://creativecommons.org/ns#"
   xmlns:rdf="http://www.w3.org/1999/02/22-rdf-syntax-ns#"
   xmlns:svg="http://www.w3.org/2000/svg"
   xmlns="http://www.w3.org/2000/svg"
   xmlns:sodipodi="http://sodipodi.sourceforge.net/DTD/sodipodi-0.dtd"
   xmlns:inkscape="http://www.inkscape.org/namespaces/inkscape"
   width="5mm"
   height="9.8322344mm"
   viewBox="0 0 5 9.8322344"
   version="1.1"
   id="svg8"
   inkscape:version="1.0.1 (c497b03c, 2020-09-10)"
   sodipodi:docname="arrow2c.svg">
  <defs
     id="defs2" />
  <sodipodi:namedview
     id="base"
     pagecolor="#ffffff"
     bordercolor="#666666"
     borderopacity="1.0"
     inkscape:pageopacity="0.0"
     inkscape:pageshadow="2"
     inkscape:zoom="5.9692698"
     inkscape:cx="19.461579"
     inkscape:cy="31.711899"
     inkscape:document-units="mm"
     inkscape:current-layer="layer1"
     inkscape:document-rotation="0"
     showgrid="false"
     inkscape:window-width="1252"
     inkscape:window-height="856"
     inkscape:window-x="34"
     inkscape:window-y="22"
     inkscape:window-maximized="0" />
  <metadata
     id="metadata5">
    <rdf:RDF>
      <cc:Work
         rdf:about="">
        <dc:format>image/svg+xml</dc:format>
        <dc:type
           rdf:resource="http://purl.org/dc/dcmitype/StillImage" />
        <dc:title></dc:title>
      </cc:Work>
    </rdf:RDF>
  </metadata>
  <g
     inkscape:label="Layer 1"
     inkscape:groupmode="layer"
     id="layer1">
    <path
       id="path24"
       style="fill:#000000;stroke-width:0.0092511"
       d="M 2.5783657,9.827708 C 2.4142533,9.807678 2.0056909,9.771588 2.0943906,9.533321 1.7868399,9.357183 1.7166058,8.970273 1.7074329,8.638698 1.6238916,8.199126 2.3124921,8.258084 2.2190306,7.879335 2.1853153,7.300796 2.1009678,6.7212 2.0759073,6.145542 2.0300654,5.819988 2.024433,5.468751 1.9611915,5.138751 1.9042863,4.7125751 1.9300549,4.2795366 1.9157535,3.8509848 1.9829104,3.3411112 1.7427027,4.0231746 1.6005611,4.1072386 1.4573991,4.3826289 1.2218855,4.5634867 1.0509995,4.8135222 0.88320787,5.0636965 0.67330927,5.2875 0.43325427,5.480263 c -0.056788,0.231048 -0.5913456,0.510372 -0.3868846,0.08248 0.1834122,-0.256194 0.1638068,-0.541008 0.3368237,-0.7849012 0.12776,-0.3665652 0.2978025,-0.7171393 0.4998722,-1.0483361 C 0.94930157,3.4514016 1.0998689,3.1942234 1.2147312,2.9542154 1.377819,2.7029802 1.4363467,2.4151352 1.6102144,2.1624423 1.7347343,1.8790924 1.8351297,1.5886106 1.9521088,1.2923307 2.0859005,0.9573701 2.221553,0.6194091 2.3020185,0.2683825 2.4500626,0.0043033 2.6445569,-0.0735633 2.8901785,0.0735949 3.1163587,0.3887116 3.1451495,0.8082447 3.3001319,1.1623896 3.4255889,1.449219 3.50431,1.7275713 3.6104716,2.0238873 3.7116783,2.3627481 3.8450438,2.6822405 3.9599448,3.0234859 4.1563133,3.3388539 4.1633357,3.7450777 4.3945859,4.0323721 4.5619861,4.3046958 4.7542449,4.5134168 4.8847202,4.8068539 5.0741785,5.0501695 4.9798276,5.326473 4.950565,5.54606 4.8169507,5.885565 4.566163,5.352248 4.3426728,5.28401 4.1462572,5.01362 3.9968023,4.716564 3.7514297,4.4843307 3.4948528,4.2479481 3.3175665,3.9358223 3.1202541,3.6539661 3.0164468,3.5299633 2.9414434,3.2975693 2.9535265,3.60495 2.9378345,4.0609002 2.9062435,4.5140281 2.9228915,4.9700538 2.9226565,5.497444 2.9534805,6.036532 2.9157315,6.559751 2.9756765,7.122118 2.8976605,7.696062 3.020171,8.251818 3.2652225,8.408829 3.481374,8.616039 3.4230526,8.943725 3.3846666,9.252064 3.2925286,9.593226 2.9729408,9.711585 2.8525715,9.763535 2.7128444,9.853413 2.5783646,9.827708 Z" />
  </g>
</svg>
