<?xml version="1.0" encoding="UTF-8" standalone="no"?>
<svg
   xmlns:dc="http://purl.org/dc/elements/1.1/"
   xmlns:cc="http://creativecommons.org/ns#"
   xmlns:rdf="http://www.w3.org/1999/02/22-rdf-syntax-ns#"
   xmlns:svg="http://www.w3.org/2000/svg"
   xmlns="http://www.w3.org/2000/svg"
   xmlns:sodipodi="http://sodipodi.sourceforge.net/DTD/sodipodi-0.dtd"
   xmlns:inkscape="http://www.inkscape.org/namespaces/inkscape"
   width="5mm"
   height="12.779886mm"
   viewBox="0 0 5 12.779886"
   version="1.1"
   id="svg8"
   inkscape:version="1.0.1 (c497b03c, 2020-09-10)"
   sodipodi:docname="arrow3c.svg">
  <defs
     id="defs2" />
  <sodipodi:namedview
     id="base"
     pagecolor="#ffffff"
     bordercolor="#666666"
     borderopacity="1.0"
     inkscape:pageopacity="0.0"
     inkscape:pageshadow="2"
     inkscape:zoom="2.051659"
     inkscape:cx="31.258029"
     inkscape:cy="90.478533"
     inkscape:document-units="mm"
     inkscape:current-layer="layer1"
     inkscape:document-rotation="0"
     showgrid="false"
     inkscape:window-width="1252"
     inkscape:window-height="856"
     inkscape:window-x="34"
     inkscape:window-y="22"
     inkscape:window-maximized="0" />
  <metadata
     id="metadata5">
    <rdf:RDF>
      <cc:Work
         rdf:about="">
        <dc:format>image/svg+xml</dc:format>
        <dc:type
           rdf:resource="http://purl.org/dc/dcmitype/StillImage" />
        <dc:title></dc:title>
      </cc:Work>
    </rdf:RDF>
  </metadata>
  <g
     inkscape:label="Layer 1"
     inkscape:groupmode="layer"
     id="layer1">
    <path
       id="path62"
       style="fill:#000000;stroke-width:0.0104629"
       d="M 2.7206225,12.779967 C 2.4836758,12.668126 2.2625803,12.274192 2.3090131,11.945902 2.4264597,11.586216 2.2873169,11.237361 2.2931137,10.856522 2.3345652,10.419626 2.2395731,10.022087 2.2856657,9.6089892 2.3015086,9.2055306 2.2209221,8.8167199 2.223087,8.4147308 2.1917537,8.0022723 2.1765974,7.574877 2.1575828,7.1716913 2.1302627,6.7367341 2.0710866,6.2916731 2.1283962,5.8614017 2.0890287,5.4747549 2.1091567,5.0927237 2.0989108,4.7042854 2.0377723,4.3251648 2.0782767,3.9257345 2.0109159,3.5447665 2.0960316,2.898347 1.7513524,3.7360963 1.5472614,3.8571707 1.3739925,4.1835642 1.240945,4.5167939 1.1388429,4.8682941 1.0118148,5.1470596 0.91363071,5.4855377 0.81985361,5.7577611 0.78253861,5.9990939 0.49976421,6.3609741 0.22878091,6.1123742 0.07855241,6.369712 -0.02541959,5.7605406 0.00543721,5.703501 0.12675881,5.5786437 0.13742751,5.2528088 0.28721541,5.0886495 0.43366201,4.7634638 0.51573951,4.3711138 0.70477811,4.0798864 0.86019981,3.7664738 0.96714211,3.4539603 1.155846,3.1532593 1.2866673,2.8220537 1.3726695,2.4824648 1.5142938,2.1586444 1.6182962,1.8126675 1.7531683,1.4607672 1.7864441,1.115911 1.8756811,0.77835628 1.9262157,0.39134298 2.2239214,0.16334928 c 0.2324798,-0.2528391 0.6013482,-0.1569147 0.8567014,-0.07671 0.1039674,0.2056768 0.1632347,0.3694608 0.1359861,0.6146828 0.1122745,0.30732012 0.1603885,0.70245572 0.2138922,0.97011842 0.071979,0.3326398 0.2110889,0.6445479 0.2886148,0.970338 0.051622,0.2894912 0.1442011,0.606018 0.1997459,0.869571 0.1139054,0.389773 0.3317953,0.7777982 0.4660308,1.1720102 0.113534,0.2214515 0.1160677,0.4106322 0.3733773,0.3360142 0.2436047,0.2190818 0.1477166,0.4826144 0.2110253,0.763823 C 5.1043542,6.0588922 4.7727186,6.5543357 4.3877167,6.3723256 4.0369074,6.3524956 4.0979181,6.0677392 4.0706274,5.8254525 3.882548,5.4769196 3.7439009,5.0942009 3.561968,4.7593185 3.4326522,4.4448171 3.2977881,4.114739 3.2117271,3.7896747 3.1544621,3.5695217 2.9603871,2.9180597 3.0117299,3.4628421 c -0.00633,0.6523913 -0.027499,1.3168729 -0.017729,1.9755905 -0.012138,0.481176 -0.066536,0.9625401 -0.057775,1.4431773 -0.061256,0.370247 -0.00822,0.769391 -0.045258,1.1499051 0.00617,0.5123263 0.017803,1.0103587 0.063006,1.5145178 0.034311,0.3434122 0.030947,0.7665022 0.066354,1.0566952 0.2583247,0.227836 0.00298,0.500017 0.1104893,0.735091 0.063466,0.375824 0.014381,0.724558 -0.081898,1.090669 -0.056723,0.153283 -0.1288853,0.354476 -0.3282967,0.351479 z m 0.3958919,-0.819674 c -0.04236,-0.08838 -0.047019,0.05531 0,0 z M 2.7450359,8.2093858 c -0.036678,-0.055375 -0.024875,0.056499 0,0 z M 2.4834636,7.2459199 c -0.036559,-0.046566 -0.037095,0.055859 0,0 z M 3.1530887,2.1774742 c -0.012654,-0.038254 -0.025804,0.037272 0,0 z M 2.9627879,1.7876078 c -0.042565,-0.062443 -0.054727,0.076536 0,0 z" />
  </g>
</svg>
