<svg xmlns="http://www.w3.org/2000/svg" viewBox="0 0 36.75 68.18"><title>Asset 28</title><g id="Layer_2"><g id="Layer_1-2"><path d="M0,56.09l3.47-1.43a16.56,16.56,0,0,1,.67,2.81A6,6,0,0,0,9.3,63.39a54.63,54.63,0,0,0,12.52-.33c2.23-.3,4.5-.12,6.74-.23a8.59,8.59,0,0,0,2.94-.52,3,3,0,0,0,1.2-1.71,7.38,7.38,0,0,0,.44-2.71c-.21-3.31.55-6.54.45-9.85s.22-6.63.15-9.94c-.09-3.54.38-7,.52-10.52.22-5.23,0-10.46-1.71-15.41a19.22,19.22,0,0,0-1.87-3.74,32.45,32.45,0,0,0-2.59-3.72,2.84,2.84,0,0,0-4-.59,24.25,24.25,0,0,0-8,8.77c-1,1.89-2.11,3.73-3,5.7C11.28,22.53,9.57,26.55,9,31c-.49,3.62,0,7,2.54,9.69a39.42,39.42,0,0,0,3.62,3.15,22.54,22.54,0,0,0,5.39,3.71,30.21,30.21,0,0,0,3,.9c-.37-2.1-.1-3.78-.56-5.53S22.4,39,22.08,37c-.23-1.42-.56-2.83-.9-4.22-.46-1.91-1-3.79-1.46-5.69a2.13,2.13,0,0,1,1.41-2.63,5.7,5.7,0,0,1,1.5.08c.51,2.55,1,5.07,1.51,7.6s1,4.9,1.37,7.38c.21,1.34.17,2.73.27,4.09.08,1.06.21,2.12.31,3.18.12,1.28.24,2.56.34,3.74a4,4,0,0,1-5,1.85,16.35,16.35,0,0,1-4.19-2,51,51,0,0,1-6.15-5c-2.62-2.53-5-5.44-5.21-9.67a33.91,33.91,0,0,1,.58-6.08c.11-.81.5-1.56.69-2.36a23.3,23.3,0,0,1,1.72-4.85C10,20.15,11,17.68,12,15.25A38.06,38.06,0,0,1,17.77,6a26.86,26.86,0,0,1,5.69-5,4.7,4.7,0,0,1,6,.16,16.13,16.13,0,0,1,2.77,3.19,17.2,17.2,0,0,1,2.18,3.8,25.72,25.72,0,0,1,2.06,7.57c.29,4.39.32,8.77.18,13.17-.22,7.23,0,14.47-.08,21.71,0,3.38,0,6.78-.3,10.14S32.92,67,30,67.19a7.88,7.88,0,0,1-1.19,0,31.88,31.88,0,0,0-9.54.63,15.36,15.36,0,0,1-7.07-.14c-1.42-.33-2.92-.18-4.37-.37a7.1,7.1,0,0,1-5.69-4A14.86,14.86,0,0,1,0,56.09Z"></path></g></g></svg>