<?xml version="1.0" encoding="UTF-8" standalone="no"?>
<svg
   xmlns:dc="http://purl.org/dc/elements/1.1/"
   xmlns:cc="http://creativecommons.org/ns#"
   xmlns:rdf="http://www.w3.org/1999/02/22-rdf-syntax-ns#"
   xmlns:svg="http://www.w3.org/2000/svg"
   xmlns="http://www.w3.org/2000/svg"
   xmlns:sodipodi="http://sodipodi.sourceforge.net/DTD/sodipodi-0.dtd"
   xmlns:inkscape="http://www.inkscape.org/namespaces/inkscape"
   viewBox="0 0 10 18.559118"
   version="1.1"
   id="svg94"
   sodipodi:docname="symbol7.svg"
   width="10"
   height="18.559118"
   inkscape:version="1.0.1 (c497b03c, 2020-09-10)">
  <metadata
     id="metadata100">
    <rdf:RDF>
      <cc:Work
         rdf:about="">
        <dc:format>image/svg+xml</dc:format>
        <dc:type
           rdf:resource="http://purl.org/dc/dcmitype/StillImage" />
      </cc:Work>
    </rdf:RDF>
  </metadata>
  <defs
     id="defs98" />
  <sodipodi:namedview
     pagecolor="#ffffff"
     bordercolor="#666666"
     borderopacity="1"
     objecttolerance="10"
     gridtolerance="10"
     guidetolerance="10"
     inkscape:pageopacity="0"
     inkscape:pageshadow="2"
     inkscape:window-width="1406"
     inkscape:window-height="856"
     id="namedview96"
     showgrid="false"
     inkscape:zoom="9.8269287"
     inkscape:cx="18.375"
     inkscape:cy="34.09416"
     inkscape:window-x="34"
     inkscape:window-y="22"
     inkscape:window-maximized="1"
     inkscape:current-layer="svg94" />
  <title
     id="title88">Asset 28</title>
  <g
     id="Layer_2"
     transform="matrix(0.27224934,0,0,0.27224934,-5,-9.2783676)">
    <g
       id="Layer_1-2">
      <path
         d="m 0,56.09 3.47,-1.43 a 16.56,16.56 0 0 1 0.67,2.81 6,6 0 0 0 5.16,5.92 54.63,54.63 0 0 0 12.52,-0.33 c 2.23,-0.3 4.5,-0.12 6.74,-0.23 a 8.59,8.59 0 0 0 2.94,-0.52 3,3 0 0 0 1.2,-1.71 7.38,7.38 0 0 0 0.44,-2.71 c -0.21,-3.31 0.55,-6.54 0.45,-9.85 -0.1,-3.31 0.22,-6.63 0.15,-9.94 -0.09,-3.54 0.38,-7 0.52,-10.52 0.22,-5.23 0,-10.46 -1.71,-15.41 a 19.22,19.22 0 0 0 -1.87,-3.74 32.45,32.45 0 0 0 -2.59,-3.72 2.84,2.84 0 0 0 -4,-0.59 24.25,24.25 0 0 0 -8,8.77 c -1,1.89 -2.11,3.73 -3,5.7 C 11.28,22.53 9.57,26.55 9,31 c -0.49,3.62 0,7 2.54,9.69 a 39.42,39.42 0 0 0 3.62,3.15 22.54,22.54 0 0 0 5.39,3.71 30.21,30.21 0 0 0 3,0.9 C 23.18,46.35 23.45,44.67 22.99,42.92 22.53,41.17 22.4,39 22.08,37 c -0.23,-1.42 -0.56,-2.83 -0.9,-4.22 -0.46,-1.91 -1,-3.79 -1.46,-5.69 a 2.13,2.13 0 0 1 1.41,-2.63 5.7,5.7 0 0 1 1.5,0.08 c 0.51,2.55 1,5.07 1.51,7.6 0.51,2.53 1,4.9 1.37,7.38 0.21,1.34 0.17,2.73 0.27,4.09 0.08,1.06 0.21,2.12 0.31,3.18 0.12,1.28 0.24,2.56 0.34,3.74 a 4,4 0 0 1 -5,1.85 16.35,16.35 0 0 1 -4.19,-2 51,51 0 0 1 -6.15,-5 c -2.62,-2.53 -5,-5.44 -5.21,-9.67 a 33.91,33.91 0 0 1 0.58,-6.08 c 0.11,-0.81 0.5,-1.56 0.69,-2.36 A 23.3,23.3 0 0 1 8.87,22.42 C 10,20.15 11,17.68 12,15.25 A 38.06,38.06 0 0 1 17.77,6 a 26.86,26.86 0 0 1 5.69,-5 4.7,4.7 0 0 1 6,0.16 16.13,16.13 0 0 1 2.77,3.19 17.2,17.2 0 0 1 2.18,3.8 25.72,25.72 0 0 1 2.06,7.57 c 0.29,4.39 0.32,8.77 0.18,13.17 -0.22,7.23 0,14.47 -0.08,21.71 0,3.38 0,6.78 -0.3,10.14 C 35.97,64.1 32.92,67 30,67.19 a 7.88,7.88 0 0 1 -1.19,0 31.88,31.88 0 0 0 -9.54,0.63 15.36,15.36 0 0 1 -7.07,-0.14 C 10.78,67.35 9.28,67.5 7.83,67.31 A 7.1,7.1 0 0 1 2.14,63.31 14.86,14.86 0 0 1 0,56.09 Z"
         id="path90" />
    </g>
  </g>
</svg>
