<svg xmlns="http://www.w3.org/2000/svg" viewBox="0 0 59.83 72.34"><title>Asset 33</title><g id="Layer_2"><g id="Layer_1-2"><path d="M49.63,71c-.45.32-.79.57-1.13.79-1.8,1.16-2.84.56-2.88-1.81,0-3.09.05-6.17.06-9.26a60.65,60.65,0,0,0-.59-10.07,53.6,53.6,0,0,1-.47-6c-.11-1.9-.18-3.81-.22-5.71,0-2.44,0-4.88-.1-7.31a75.43,75.43,0,0,1,.55-9.74c.12-1.35-.73-2-1.79-1.38a1.16,1.16,0,0,0-.31.28c-2,2.47-4.76,2.53-7.33,3.19l-2.11.5c.15,1.51.28,2.92.42,4.34.25,2.44.51,4.89.73,7.34.33,3.5.63,7,.93,10.53a28.32,28.32,0,0,1,.27,3.67,75.55,75.55,0,0,1-2.17,15.91A9.19,9.19,0,0,1,29.34,72c-1.12.65-1.91.34-2.46-1-1.36-3.24-2.51-6.54-2.36-10.26a16.29,16.29,0,0,0-.34-2.47c-.1-.83-.1-1.67-.24-2.48-.36-2.08-.67-4.18-1.21-6.19a4.22,4.22,0,0,0-2.46-2.88A28.54,28.54,0,0,0,14.74,45c-3.34-.53-6.73-.7-10.1-1.1A5,5,0,0,1,1.5,42a4.88,4.88,0,0,1-.57-6.37A63.09,63.09,0,0,1,5.56,29.5c.71-.84,1.84-1.19,2.73-1.86A21.85,21.85,0,0,1,20.12,23,28.79,28.79,0,0,0,24,22c1-.2,2-.16,3-.31,2-.3,2.24-.6,1.92-2.76a20.13,20.13,0,0,1,.53-8.2,16,16,0,0,1,5.84-9A9.58,9.58,0,0,1,41.89.05a4.71,4.71,0,0,1,3.68,2.86,58.39,58.39,0,0,1,2.49,7.21,17.24,17.24,0,0,1,.07,3.23c.11,1.47.37,1.53,1.64,1.39,3-.34,5.95-.57,8.93-.78.35,0,.71.33,1.13.55a2.94,2.94,0,0,1-2.14,2.26,38.24,38.24,0,0,1-4.48,1c-1.62.33-3.26.6-5.07.94-.25,2.48-.58,4.82-.69,7.17-.14,3.16-.27,6.34-.14,9.5.2,4.84.6,9.67,1,14.5.47,6.29,1,12.57,1.47,18.86A17.68,17.68,0,0,1,49.63,71ZM29,65.88l.66-.06a23.86,23.86,0,0,0,1.56-4.88c.63-6.21,1.48-12.4.55-18.71-.75-5.15-1.1-10.37-1.64-15.55-.16-1.56-.44-1.89-1.8-1.69-3.94.59-7.88,1.21-11.81,1.91A13.31,13.31,0,0,0,12.92,28a23.46,23.46,0,0,0-8.68,7.33C2.55,37.62,3,39.53,5.54,40.19a27,27,0,0,0,5.91.89,34.37,34.37,0,0,1,8.09.9,11.52,11.52,0,0,1,4.91,2.81c2.33,2.22,2.4,5.37,2.68,8.41s.31,6.14.66,9.18A15.4,15.4,0,0,0,29,65.88ZM32.85,21c1.55-.45,3-.52,4.07-1.25a19.4,19.4,0,0,1,6.64-2.53,2,2,0,0,0,1.68-2.2c0-1-.29-1.92-.38-2.89a13.57,13.57,0,0,0-2.58-7.23,3.7,3.7,0,0,0-4.4-1.14,10.72,10.72,0,0,0-4.49,4.68C31.43,12.56,31.59,16.66,32.85,21Z"></path></g></g></svg>