<?xml version="1.0" encoding="UTF-8" standalone="no"?>
<svg
   xmlns:dc="http://purl.org/dc/elements/1.1/"
   xmlns:cc="http://creativecommons.org/ns#"
   xmlns:rdf="http://www.w3.org/1999/02/22-rdf-syntax-ns#"
   xmlns:svg="http://www.w3.org/2000/svg"
   xmlns="http://www.w3.org/2000/svg"
   xmlns:sodipodi="http://sodipodi.sourceforge.net/DTD/sodipodi-0.dtd"
   xmlns:inkscape="http://www.inkscape.org/namespaces/inkscape"
   viewBox="0 0 10 9.1006841"
   version="1.1"
   id="svg66"
   sodipodi:docname="symbol5.svg"
   width="10"
   height="9.1006842"
   inkscape:version="1.0.1 (c497b03c, 2020-09-10)">
  <metadata
     id="metadata72">
    <rdf:RDF>
      <cc:Work
         rdf:about="">
        <dc:format>image/svg+xml</dc:format>
        <dc:type
           rdf:resource="http://purl.org/dc/dcmitype/StillImage" />
      </cc:Work>
    </rdf:RDF>
  </metadata>
  <defs
     id="defs70" />
  <sodipodi:namedview
     pagecolor="#ffffff"
     bordercolor="#666666"
     borderopacity="1"
     objecttolerance="10"
     gridtolerance="10"
     guidetolerance="10"
     inkscape:pageopacity="0"
     inkscape:pageshadow="2"
     inkscape:window-width="1406"
     inkscape:window-height="856"
     id="namedview68"
     showgrid="false"
     inkscape:zoom="21.433141"
     inkscape:cx="17.212492"
     inkscape:cy="15.680815"
     inkscape:window-x="34"
     inkscape:window-y="22"
     inkscape:window-maximized="1"
     inkscape:current-layer="svg66" />
  <title
     id="title60">Asset 25</title>
  <g
     id="Layer_2"
     transform="matrix(0.29066614,0,0,0.29066614,-5.0021821,-4.5357299)">
    <g
       id="Layer_1-2">
      <path
         d="m 18.49,30.83 c -0.72,0.1 -1.43,0.19 -2.14,0.3 -3.35,0.53 -6.53,-0.66 -9.48,-2 A 10.17,10.17 0 0 1 1.5,24 14.41,14.41 0 0 1 0.08,16.17 11.29,11.29 0 0 1 2.2,10.61 4.4,4.4 0 0 0 3.13,9.18 c 0.42,-2 1.87,-2.81 3,-4 C 8.69,2.5 12,2 15,0.46 A 7.82,7.82 0 0 1 18.67,0 38.43,38.43 0 0 1 24.84,1.12 c 2.09,0.42 3.22,2.2 4.41,3.92 a 30.42,30.42 0 0 0 2.12,3 13.91,13.91 0 0 1 3,7.62 10.1,10.1 0 0 1 -2,7 c -2.58,3.87 -6.15,6 -10,7.67 a 16.6,16.6 0 0 1 -3.87,0.68 z m -0.11,-4.17 v -0.25 a 6.36,6.36 0 0 0 2.39,-0.05 21.35,21.35 0 0 0 7.52,-4.79 7.47,7.47 0 0 0 1.26,-6.8 C 28.55,12.07 26.68,10 25.28,7.59 25.09,7.27 24.6,7.17 24.28,7.01 23.17,6.53 21.84,6.35 20.97,5.52 a 4.51,4.51 0 0 0 -4.29,-1 C 13.8,5 11,5.82 8.63,8.13 a 16.65,16.65 0 0 0 -3.7,5.34 8.6,8.6 0 0 0 -0.78,2.8 c -0.32,5.5 3,8.6 6.7,9.56 a 51,51 0 0 0 7.53,0.83 z"
         id="path62" />
    </g>
  </g>
</svg>
