<svg xmlns="http://www.w3.org/2000/svg" viewBox="0 0 41.92 125.79"><title>Asset 31</title><g id="Layer_2"><g id="Layer_1-2"><path d="M8.07,31.82,6.85,33.36c-.48-.43-1.37-.81-1.49-1.41C4.81,29.39,3.9,26.79,5,24.11a1.21,1.21,0,0,0,.12-.44C5,20.33,6.54,17.62,7.79,14.9a19.87,19.87,0,0,1,3.85-5.26,78.28,78.28,0,0,1,7-6.43A11.89,11.89,0,0,1,22.5,1.46C26.11.3,29.79-.69,33.49.63a10.93,10.93,0,0,1,7.26,7.49A23.43,23.43,0,0,1,38,28.42a19,19,0,0,1-11.6,8.77,28.58,28.58,0,0,0-11.5,5.52,28.83,28.83,0,0,0-4.2,5.08,30.76,30.76,0,0,0-1.83,3.05,7.54,7.54,0,0,0-.7,1.39c-.75,2.44-1.47,4.9-2.2,7.37a1.93,1.93,0,0,0,2.21,1.17c2.35-.42,4.71-.89,7.07-1.2S20,59,22.45,58.92a50.63,50.63,0,0,1,7.18.21,22.63,22.63,0,0,1,5,1.37c2.14.8,2.76,3,2.08,5.47-1,3.75-3.4,6.17-5.71,8.7-2.76,3-5.59,5.93-8.36,8.92a87.59,87.59,0,0,0-9.23,12.74,127.4,127.4,0,0,0-7,13,45.58,45.58,0,0,0-3.21,10.37c-.35,1.68.28,2.6,1.76,2.49a11.17,11.17,0,0,0,4.4-1.26c2.53-1.32,5.23-2.18,7.86-3.26,1.81-.74,3.59-1.61,5.43-2.27a25.3,25.3,0,0,1,4.83-1.33A71.5,71.5,0,0,1,37,112.93a17,17,0,0,0,3-.61,4,4,0,0,1,.67.42,2.67,2.67,0,0,1,1.1,3.11,2.71,2.71,0,0,1-3.18,1.57,8.07,8.07,0,0,0-1.93-.39c-2.12-.09-4.23-.13-6.35-.17a2.3,2.3,0,0,0-.78.11c-4.8,1.7-9.62,3.35-14.39,5.15C13,122.93,11,124.21,8.82,125a12.79,12.79,0,0,1-4.87.81c-3.31-.2-4.69-2.9-3.56-6.59.66-2.16,1.43-4.28,2.14-6.43a42.83,42.83,0,0,1,1.4-4.28,81.69,81.69,0,0,1,5-10.16c2.27-3.58,4.29-7.42,7.1-10.54.69-.77,1.07-1.89,1.72-2.72a107.9,107.9,0,0,1,8.72-10c1.84-1.84,3.4-4,5.09-6.1a18.32,18.32,0,0,0,1.6-2c1-1.68.71-2.53-.77-3.65A7.48,7.48,0,0,0,28,62a58,58,0,0,0-8.54.05c-3.75.32-7.48,1-11.23,1.43a12.74,12.74,0,0,1-3.37-.2A1.94,1.94,0,0,1,3.21,60.9,36.11,36.11,0,0,1,4.5,55.14a42.66,42.66,0,0,1,2-4.72,30,30,0,0,1,6.8-9.7c1.34-1.24,2.88-1.83,4.27-2.82,2.69-1.93,5.73-2.67,8.73-3.59a10.82,10.82,0,0,0,2.77-1.15c2.06-1.33,4.19-2.54,5.74-4.79a48.24,48.24,0,0,0,4-6.87c.46-1,1.09-2,.56-3.22-.08-.17,0-.45.08-.67a13.56,13.56,0,0,0-2.3-11,9.87,9.87,0,0,0-4-3.17,10.6,10.6,0,0,0-4.51-.72,17.76,17.76,0,0,0-12.4,5.3,31.62,31.62,0,0,0-7,8.68A18.74,18.74,0,0,0,8,31.31,2.37,2.37,0,0,1,8.07,31.82Z"></path></g></g></svg>