<svg xmlns="http://www.w3.org/2000/svg" viewBox="0 0 53.72 90.6"><title>Asset 29</title><g id="Layer_2"><g id="Layer_1-2"><path d="M42.46,24.26a18.5,18.5,0,0,0,.11-9.17c-.91-3.86-3.19-6-6-7.79a28.29,28.29,0,0,0-11.13-4,35.87,35.87,0,0,0-10.29-.22c-3.74.54-7.23,2-9.54,6.18A34.53,34.53,0,0,0,2.77,16c-1.37,4.48.81,8.12,3.37,10.45s5.46,3.07,7.92,5.17a5.34,5.34,0,0,0,1.67.73c4.6,1.77,9.21,3.5,13.79,5.32a13.48,13.48,0,0,1,2.85,1.62c1.11.8,1.74,3.26,1.35,4.76a29.83,29.83,0,0,1-3,7.92c-2,3.35-3.88,6.81-5.85,10.19-1.22,2.08-2.77,4-3.72,6.19-1.74,4.09-3.67,8.14-4.2,12.79-.39,3.4.29,4.89,2.93,6.2a2.25,2.25,0,0,0,1.14.21,48.56,48.56,0,0,0,5.53-.51c1.55-.28,3-1,4.58-1.39,2.38-.62,4.78-1.15,7.17-1.7a14.48,14.48,0,0,1,2.16-.34,22,22,0,0,1,4.13-.1A2,2,0,0,0,47,82.22a5.36,5.36,0,0,0,.85-3.4.84.84,0,0,1,0-.45c1.14-1.77.47-3.84.66-5.75a30.27,30.27,0,0,0-.29-4.82c-.17-2.37-.27-4.76-.52-7.12-.39-3.57-.82-7.14-1.34-10.69a33,33,0,0,0-1.12-4.84c-.55-1.81,0-3,1.67-2.81s3.4.24,5-.84c.44-.29,1.15,0,1.76,0,.26,1.75-.2,2.85-1.52,3.44-.68.31-1.33.72-2,1-1.55.69-1.64.71-1.37,2.7.65,4.86,1.55,9.68,2,14.56.42,4.41.95,8.85.44,13.32-.31,2.66-.36,5.4-1.39,7.85-.62,1.48-.73,3.6-3,3.73-1.29-1.24-3-1.23-4.86-1.34-3.39-.19-6.55.94-9.79,1.66-1.75.38-3.48.92-5.2,1.43-2.89.85-6,1.22-8.95-.07A6.68,6.68,0,0,1,14.16,83a35.79,35.79,0,0,1,1-5.11,33.78,33.78,0,0,1,3.15-8.65c1.93-3.92,4.23-7.59,6.25-11.46.84-1.62,1.78-3.2,2.67-4.73,1.05-1.79,1.82-3.72,2.75-5.55a7.27,7.27,0,0,0,.79-3.73,3.1,3.1,0,0,0-2-3c-3.6-1.37-7.25-2.55-10.83-4-1.43-.56-2.75-1.52-4.14-2.23-.95-.49-2-.85-2.93-1.29a12.19,12.19,0,0,1-4.49-2.85,8.17,8.17,0,0,0-2.6-2,5.84,5.84,0,0,1-3-3.81,12.79,12.79,0,0,1-.4-7.22A47.69,47.69,0,0,1,2.81,9.81,15.92,15.92,0,0,1,8,3.35,16.16,16.16,0,0,1,18.94,0,75.28,75.28,0,0,1,27,.58c2.52.45,5.11.85,7.46,2.26,1.4.84,2.9,1.45,4.33,2.21,4.27,2.27,6.32,6.24,6.81,11.59a17,17,0,0,1-1,8.53,4.86,4.86,0,0,1-1.74,2,1.76,1.76,0,0,1-1.81-.12A3.62,3.62,0,0,1,40.45,25c0-.22.48-.63.81-.75A3.36,3.36,0,0,1,42.46,24.26Z"></path></g></g></svg>