<?xml version="1.0" encoding="UTF-8" standalone="no"?>
<svg
   xmlns:dc="http://purl.org/dc/elements/1.1/"
   xmlns:cc="http://creativecommons.org/ns#"
   xmlns:rdf="http://www.w3.org/1999/02/22-rdf-syntax-ns#"
   xmlns:svg="http://www.w3.org/2000/svg"
   xmlns="http://www.w3.org/2000/svg"
   xmlns:sodipodi="http://sodipodi.sourceforge.net/DTD/sodipodi-0.dtd"
   xmlns:inkscape="http://www.inkscape.org/namespaces/inkscape"
   viewBox="0 0 9.9999997 12.850916"
   version="1.1"
   id="svg38"
   sodipodi:docname="symbol3.svg"
   width="10"
   height="12.850916"
   inkscape:version="1.0.1 (c497b03c, 2020-09-10)">
  <metadata
     id="metadata44">
    <rdf:RDF>
      <cc:Work
         rdf:about="">
        <dc:format>image/svg+xml</dc:format>
        <dc:type
           rdf:resource="http://purl.org/dc/dcmitype/StillImage" />
      </cc:Work>
    </rdf:RDF>
  </metadata>
  <defs
     id="defs42" />
  <sodipodi:namedview
     pagecolor="#ffffff"
     bordercolor="#666666"
     borderopacity="1"
     objecttolerance="10"
     gridtolerance="10"
     guidetolerance="10"
     inkscape:pageopacity="0"
     inkscape:pageshadow="2"
     inkscape:window-width="1406"
     inkscape:window-height="856"
     id="namedview40"
     showgrid="false"
     inkscape:zoom="2.1268602"
     inkscape:cx="-21.866256"
     inkscape:cy="60.991997"
     inkscape:window-x="34"
     inkscape:window-y="22"
     inkscape:window-maximized="1"
     inkscape:current-layer="svg38" />
  <title
     id="title32">Asset 35</title>
  <g
     id="Layer_2"
     transform="matrix(0.1705323,0,0,0.1705323,-4.9967034,-6.4234812)">
    <g
       id="Layer_1-2">
      <path
         d="M 53,21.06 C 52.58,20.44 51.84,19.84 51.81,19.2 51.71,16.47 49.88,14.92 48.86,12.84 A 10.06,10.06 0 0 0 47.62,10.78 11.75,11.75 0 0 0 45.24,8.43 C 42,6.27 38.57,4.65 34.69,4.65 c -2.52,0 -5,-0.47 -7.56,-0.58 a 12,12 0 0 0 -2.7,0.54 22,22 0 0 0 -6.82,2.32 c -1.12,0.64 -2.33,1.09 -3.49,1.66 a 8.63,8.63 0 0 0 -3.48,3.69 C 8.71,15.66 6.79,19.07 5.17,22.64 A 25.78,25.78 0 0 0 3.26,32 a 30.61,30.61 0 0 0 3.32,15.7 4.72,4.72 0 0 1 0.27,0.61 15.06,15.06 0 0 0 2.21,4.58 34.87,34.87 0 0 1 2.84,5.51 c 1.64,3.5 4.21,6.06 6.58,8.84 2.42,0.9 4.32,3.74 7.23,2.8 a 39.91,39.91 0 0 0 5,-2.08 c 1.46,-0.7 2.79,-1.79 4.28,-2.37 3,-1.16 4.82,-3.7 6.5,-6.52 a 10.63,10.63 0 0 1 0.92,-1.49 c 2.44,-2.85 3.49,-6.42 4.1,-10.26 0.32,-2 0.82,-3.87 1.25,-5.8 A 35.29,35.29 0 0 0 48.38,31.21 7.78,7.78 0 0 0 47.61,28.93 21.24,21.24 0 0 0 38.7,18.44 16.43,16.43 0 0 0 29.9,15.65 c -1.37,0 -2.74,0 -4.1,0.12 -3.87,0.28 -6.66,2.74 -8.55,6.4 -3,5.79 -4,12 -2,18.59 0.43,1.45 0.54,3.06 1.1,4.42 1.31,3.17 2.69,6.36 5.17,8.56 a 5.86,5.86 0 0 0 2.56,1 c 2.42,0.63 4.46,-0.77 6.57,-1.8 3.72,-1.81 5.63,-5.18 6.8,-9.55 a 38.39,38.39 0 0 0 1,-9.7 c 0,-1.41 -2.23,-4.13 -3.49,-4.35 -1,-0.18 -3,1.23 -3.53,2.62 a 13.22,13.22 0 0 0 -0.82,3.08 2.77,2.77 0 0 1 -2.44,2.82 c -2.49,-2.78 -2.54,-5.72 -0.19,-8.53 0.6,-0.72 1.19,-1.46 1.75,-2.22 3.27,-4.45 10.64,-3.21 12.13,3.45 a 23,23 0 0 1 0.32,9.81 c -0.32,1.6 -0.45,3.3 -0.81,4.93 a 16.81,16.81 0 0 1 -4.77,8.36 c -3,3.06 -6.78,4.46 -10.6,5.55 -2.14,0.62 -4.22,-0.27 -6.28,-0.85 a 1.48,1.48 0 0 1 -0.83,-0.61 c -1.43,-2.26 -3.31,-4.12 -4.06,-7 -0.61,-2.34 -1.65,-4.52 -2.4,-6.81 a 21.34,21.34 0 0 1 -0.67,-3.33 17.7,17.7 0 0 1 -0.2,-2.3 c 0,-1.21 0,-2.43 0,-3.64 0,-1.21 0,-2.31 0,-3.47 a 9.61,9.61 0 0 1 1.07,-5.28 39.51,39.51 0 0 0 1.73,-4.38 14.53,14.53 0 0 1 2.13,-3.84 c 1.89,-2 3.89,-4 6.55,-4.66 1,-0.26 2.07,-0.5 3.08,-0.85 a 6.66,6.66 0 0 1 5.23,0.3 1.75,1.75 0 0 0 0.75,0.29 c 3.81,-0.1 7.21,1.52 10.48,3.51 a 16.14,16.14 0 0 1 3,2.66 c 0.73,0.75 1.25,1.79 2,2.47 1.68,1.52 2.57,3.62 3.54,5.73 a 12.07,12.07 0 0 1 1.28,6.4 c -0.46,4 -1.12,7.88 -1.74,11.81 -0.28,1.8 -0.62,3.59 -1,5.37 a 33.33,33.33 0 0 1 -8.85,16.89 11.82,11.82 0 0 1 -2.86,2 56.78,56.78 0 0 1 -11.59,5.42 9.77,9.77 0 0 1 -6.64,-0.65 c -0.77,-0.32 -1.32,-1.3 -2.08,-1.74 -3.42,-2 -5.69,-5.34 -8,-8.69 A 2.43,2.43 0 0 1 9.2,63.2 c -0.55,-2.94 -2.45,-5 -3.52,-7.66 -1.23,-3 -2.9,-5.76 -3.87,-9 -1,-3.66 -1.98,-7.27 -1.81,-11.13 0.17,-3.37 0.2,-6.9 1.12,-10 1.12,-3.8 3.15,-7.23 4.71,-10.87 1,-2.25 2.55,-4 3.55,-6.26 a 9,9 0 0 1 3.47,-3.37 21.67,21.67 0 0 1 4.77,-2.2 45.79,45.79 0 0 1 7.52,-2.09 28.93,28.93 0 0 1 14.69,0.7 14.05,14.05 0 0 0 2.73,0.47 c 3.18,0.26 5.55,2.46 7.75,4.71 1.29,1.31 2.1,3.32 3,5.12 1.26,2.62 2.34,5.35 3.53,8 0.51,1.13 0.48,2.54 1.43,3.44 0.22,0.2 0.25,0.71 0.31,1.08 0.21,1.35 -0.42,2.92 -1.31,3.33 -0.89,0.41 -2.33,-0.22 -3,-1.55 A 13.93,13.93 0 0 1 53,21.06 Z"
         id="path34" />
    </g>
  </g>
</svg>
