<svg xmlns="http://www.w3.org/2000/svg" viewBox="0 0 34.44 31.26"><title>Asset 25</title><g id="Layer_2"><g id="Layer_1-2"><path d="M18.49,30.83c-.72.1-1.43.19-2.14.3-3.35.53-6.53-.66-9.48-2A10.17,10.17,0,0,1,1.5,24,14.41,14.41,0,0,1,.08,16.17,11.29,11.29,0,0,1,2.2,10.61a4.4,4.4,0,0,0,.93-1.43c.42-2,1.87-2.81,3-4C8.69,2.5,12,2,15,.46A7.82,7.82,0,0,1,18.67,0a38.43,38.43,0,0,1,6.17,1.12c2.09.42,3.22,2.2,4.41,3.92a30.42,30.42,0,0,0,2.12,3,13.91,13.91,0,0,1,3,7.62,10.1,10.1,0,0,1-2,7c-2.58,3.87-6.15,6-10,7.67a16.6,16.6,0,0,1-3.87.68Zm-.11-4.17v-.25a6.36,6.36,0,0,0,2.39-.05,21.35,21.35,0,0,0,7.52-4.79,7.47,7.47,0,0,0,1.26-6.8c-1-2.7-2.87-4.77-4.27-7.18-.19-.32-.68-.42-1-.58-1.11-.48-2.44-.66-3.31-1.49a4.51,4.51,0,0,0-4.29-1C13.8,5,11,5.82,8.63,8.13a16.65,16.65,0,0,0-3.7,5.34,8.6,8.6,0,0,0-.78,2.8c-.32,5.5,3,8.6,6.7,9.56A51,51,0,0,0,18.38,26.66Z"></path></g></g></svg>