<?xml version="1.0" encoding="UTF-8" standalone="no"?>
<svg
   xmlns:dc="http://purl.org/dc/elements/1.1/"
   xmlns:cc="http://creativecommons.org/ns#"
   xmlns:rdf="http://www.w3.org/1999/02/22-rdf-syntax-ns#"
   xmlns:svg="http://www.w3.org/2000/svg"
   xmlns="http://www.w3.org/2000/svg"
   xmlns:sodipodi="http://sodipodi.sourceforge.net/DTD/sodipodi-0.dtd"
   xmlns:inkscape="http://www.inkscape.org/namespaces/inkscape"
   viewBox="0 0 9.9999999 23.221538"
   version="1.1"
   id="svg122"
   sodipodi:docname="symbol9.svg"
   width="10"
   height="23.221537"
   inkscape:version="1.0.1 (c497b03c, 2020-09-10)">
  <metadata
     id="metadata128">
    <rdf:RDF>
      <cc:Work
         rdf:about="">
        <dc:format>image/svg+xml</dc:format>
        <dc:type
           rdf:resource="http://purl.org/dc/dcmitype/StillImage" />
      </cc:Work>
    </rdf:RDF>
  </metadata>
  <defs
     id="defs126" />
  <sodipodi:namedview
     pagecolor="#ffffff"
     bordercolor="#666666"
     borderopacity="1"
     objecttolerance="10"
     gridtolerance="10"
     guidetolerance="10"
     inkscape:pageopacity="0"
     inkscape:pageshadow="2"
     inkscape:window-width="1251"
     inkscape:window-height="856"
     id="namedview124"
     showgrid="false"
     inkscape:zoom="7.605858"
     inkscape:cx="12.674604"
     inkscape:cy="8.1609216"
     inkscape:window-x="34"
     inkscape:window-y="22"
     inkscape:window-maximized="0"
     inkscape:current-layer="svg122"
     inkscape:document-rotation="0" />
  <title
     id="title116">Asset 32</title>
  <g
     id="Layer_2"
     transform="matrix(0.26348479,0,0,0.26348479,-4.9945909,-11.608547)">
    <g
       id="Layer_1-2">
      <path
         d="m 34.72,53.3 c -0.09,-3.08 0.41,-5.67 -0.47,-8.18 a 1.75,1.75 0 0 1 0,-0.46 C 33.85,37.36 33.46,30.05 33.03,22.75 32.81,18.99 32.7,15.2 32.19,11.48 a 10.41,10.41 0 0 0 -5,-7.64 C 25.93,3.08 24.05,3.38 22.5,3.64 20.6,3.96 19.01,5.21 17.37,6.44 a 42.43,42.43 0 0 0 -6.73,6.08 23.48,23.48 0 0 1 -2.51,2.57 C 7.79,15.38 6.98,15.5 6.76,15.25 A 2.07,2.07 0 0 1 6.51,13.59 6.88,6.88 0 0 1 9.14,10 12.36,12.36 0 0 0 10.92,8.3 22.25,22.25 0 0 1 13.31,6 C 15.51,4.39 17.79,3 20,1.5 A 9.71,9.71 0 0 1 29.51,1 8.66,8.66 0 0 1 33.85,5.83 22.42,22.42 0 0 1 35.4,12 c 0.37,4.06 0.35,8.17 0.61,12.25 0.39,6.08 0.9,12.14 1.32,18.21 0.18,2.69 0.29,5.39 0.41,8.09 0.08,1.76 0.12,3.51 0.19,5.27 0.08,2.12 -1.92,3.7 -3.6,2.83 a 11.28,11.28 0 0 1 -1.35,-1 c -1.85,-1.34 -3.68,-2.74 -5.58,-4 A 30.91,30.91 0 0 0 24.16,52 c -2.37,-1.21 -4.7,-2.53 -7.11,-3.62 a 29.31,29.31 0 0 1 -6.59,-4.71 c -1.9,-1.6 -1.91,-3.11 -0.2,-4.94 1.71,-1.83 3.48,-3.3 5.15,-5.06 2,-2.14 4,-4.34 5.93,-6.63 A 18.6,18.6 0 0 0 23,23.78 c -1.45,-0.73 -2.73,-1.5 -4.08,-2 -2.78,-1.09 -5.64,-0.83 -8.47,-0.3 a 14.73,14.73 0 0 0 -5.8,2.35 C 3.54,24.6 3.38,25 3.85,26.4 4.21,27.48 4.62,28.54 5,29.6 a 54,54 0 0 1 2.49,12.29 c 0.6,5.12 1,10.24 1.12,15.4 0,0.62 0.11,1.23 0.17,1.84 0.37,3.51 0.72,7 1.11,10.52 a 15.71,15.71 0 0 0 0.39,1.78 c 0.33,1.64 0.6,3.3 1,4.92 0.66,2.63 1.41,5.22 2.09,7.72 1.64,0.49 2.76,-0.39 3.92,-0.84 3.27,-1.27 6.53,-2.63 9.76,-4 0.83,-0.36 1.87,-0.32 2.38,-1.45 a 0.78,0.78 0 0 1 0.68,-0.36 c 1.52,0.26 2.74,-0.58 3.92,-1.42 a 1.44,1.44 0 0 1 2.16,0.25 c 0.66,0.73 0.26,1.47 0,2.3 a 2.74,2.74 0 0 1 -1.87,1.75 c -3,1.24 -6.17,1.54 -9.08,3.22 a 75.14,75.14 0 0 1 -9.48,4.14 7.15,7.15 0 0 1 -2.74,0.46 c -1.81,0 -2.4,-0.66 -2.92,-2.7 A 69.65,69.65 0 0 1 8,76.92 C 7.43,72 6.18,67.19 6.15,62.14 6.15,58.79 5.64,55.44 5.32,52.14 4.95,48.24 4.66,44.32 4.12,40.45 A 56.82,56.82 0 0 0 2.47,33.37 C 1.8,30.92 1,28.56 0.2,26.21 a 2.66,2.66 0 0 1 0.72,-3.09 c 3,-2.62 6.3,-4.55 10.15,-4.89 a 2.29,2.29 0 0 0 0.79,-0.08 10.47,10.47 0 0 1 6.78,-0.59 c 2.5,0.46 4.91,1.69 7.35,2.61 0.86,0.32 0.74,1.16 0.65,1.93 a 11.54,11.54 0 0 1 -3.1,6.32 c -1.5,1.74 -3.08,3.41 -4.62,5.12 -1.72,1.93 -3.46,3.84 -5.14,5.81 -1,1.18 -0.92,1.79 0.12,2.86 a 19,19 0 0 0 6.26,4 c 3.57,1.59 7.14,3.17 10.69,4.83 1.21,0.55 2.35,1.35 3.87,2.26 z"
         id="path118" />
    </g>
  </g>
</svg>
