<svg xmlns="http://www.w3.org/2000/svg" viewBox="0 0 37.93 88.09"><title>Asset 32</title><g id="Layer_2"><g id="Layer_1-2"><path d="M34.72,53.3c-.09-3.08.41-5.67-.47-8.18a1.75,1.75,0,0,1,0-.46c-.4-7.3-.79-14.61-1.22-21.91-.22-3.76-.33-7.55-.84-11.27a10.41,10.41,0,0,0-5-7.64c-1.26-.76-3.14-.46-4.69-.2-1.9.32-3.49,1.57-5.13,2.8a42.43,42.43,0,0,0-6.73,6.08,23.48,23.48,0,0,1-2.51,2.57c-.34.29-1.15.41-1.37.16a2.07,2.07,0,0,1-.25-1.66A6.88,6.88,0,0,1,9.14,10a12.36,12.36,0,0,0,1.78-1.7A22.25,22.25,0,0,1,13.31,6C15.51,4.39,17.79,3,20,1.5A9.71,9.71,0,0,1,29.51,1a8.66,8.66,0,0,1,4.34,4.83A22.42,22.42,0,0,1,35.4,12c.37,4.06.35,8.17.61,12.25.39,6.08.9,12.14,1.32,18.21.18,2.69.29,5.39.41,8.09.08,1.76.12,3.51.19,5.27.08,2.12-1.92,3.7-3.6,2.83a11.28,11.28,0,0,1-1.35-1c-1.85-1.34-3.68-2.74-5.58-4A30.91,30.91,0,0,0,24.16,52c-2.37-1.21-4.7-2.53-7.11-3.62a29.31,29.31,0,0,1-6.59-4.71c-1.9-1.6-1.91-3.11-.2-4.94s3.48-3.3,5.15-5.06c2-2.14,4-4.34,5.93-6.63A18.6,18.6,0,0,0,23,23.78c-1.45-.73-2.73-1.5-4.08-2-2.78-1.09-5.64-.83-8.47-.3a14.73,14.73,0,0,0-5.8,2.35C3.54,24.6,3.38,25,3.85,26.4c.36,1.08.77,2.14,1.15,3.2A54,54,0,0,1,7.49,41.89c.6,5.12,1,10.24,1.12,15.4,0,.62.11,1.23.17,1.84.37,3.51.72,7,1.11,10.52a15.71,15.71,0,0,0,.39,1.78c.33,1.64.6,3.3,1,4.92.66,2.63,1.41,5.22,2.09,7.72,1.64.49,2.76-.39,3.92-.84,3.27-1.27,6.53-2.63,9.76-4,.83-.36,1.87-.32,2.38-1.45a.78.78,0,0,1,.68-.36c1.52.26,2.74-.58,3.92-1.42a1.44,1.44,0,0,1,2.16.25c.66.73.26,1.47,0,2.3a2.74,2.74,0,0,1-1.87,1.75c-3,1.24-6.17,1.54-9.08,3.22a75.14,75.14,0,0,1-9.48,4.14,7.15,7.15,0,0,1-2.74.46c-1.81,0-2.4-.66-2.92-2.7A69.65,69.65,0,0,1,8,76.92C7.43,72,6.18,67.19,6.15,62.14c0-3.35-.51-6.7-.83-10-.37-3.9-.66-7.82-1.2-11.69a56.82,56.82,0,0,0-1.65-7.08C1.8,30.92,1,28.56.2,26.21a2.66,2.66,0,0,1,.72-3.09c3-2.62,6.3-4.55,10.15-4.89a2.29,2.29,0,0,0,.79-.08,10.47,10.47,0,0,1,6.78-.59c2.5.46,4.91,1.69,7.35,2.61.86.32.74,1.16.65,1.93a11.54,11.54,0,0,1-3.1,6.32c-1.5,1.74-3.08,3.41-4.62,5.12-1.72,1.93-3.46,3.84-5.14,5.81-1,1.18-.92,1.79.12,2.86a19,19,0,0,0,6.26,4c3.57,1.59,7.14,3.17,10.69,4.83C32.06,51.59,33.2,52.39,34.72,53.3Z"></path></g></g></svg>