<?xml version="1.0" encoding="UTF-8" standalone="no"?>
<svg
   xmlns:dc="http://purl.org/dc/elements/1.1/"
   xmlns:cc="http://creativecommons.org/ns#"
   xmlns:rdf="http://www.w3.org/1999/02/22-rdf-syntax-ns#"
   xmlns:svg="http://www.w3.org/2000/svg"
   xmlns="http://www.w3.org/2000/svg"
   xmlns:sodipodi="http://sodipodi.sourceforge.net/DTD/sodipodi-0.dtd"
   xmlns:inkscape="http://www.inkscape.org/namespaces/inkscape"
   viewBox="0 0 9.9999998 16.881768"
   version="1.1"
   id="svg16"
   sodipodi:docname="symbol1c.svg"
   width="10"
   height="16.881767"
   inkscape:version="1.0.1 (c497b03c, 2020-09-10)">
  <metadata
     id="metadata22">
    <rdf:RDF>
      <cc:Work
         rdf:about="">
        <dc:format>image/svg+xml</dc:format>
        <dc:type
           rdf:resource="http://purl.org/dc/dcmitype/StillImage" />
        <dc:title>Asset 29</dc:title>
      </cc:Work>
    </rdf:RDF>
  </metadata>
  <defs
     id="defs20" />
  <sodipodi:namedview
     pagecolor="#ffffff"
     bordercolor="#666666"
     borderopacity="1"
     objecttolerance="10"
     gridtolerance="10"
     guidetolerance="10"
     inkscape:pageopacity="0"
     inkscape:pageshadow="2"
     inkscape:window-width="1406"
     inkscape:window-height="856"
     id="namedview18"
     showgrid="false"
     inkscape:zoom="7.3951435"
     inkscape:cx="17.35478"
     inkscape:cy="2.8735131"
     inkscape:window-x="34"
     inkscape:window-y="22"
     inkscape:window-maximized="1"
     inkscape:current-layer="svg16"
     inkscape:document-rotation="0" />
  <title
     id="title10">Asset 29</title>
  <g
     id="Layer_2"
     transform="matrix(0.18621951,0,0,0.18621951,-0.00736472,0.00629637)">
    <g
       id="Layer_1-2">
      <path
         d="m 42.46,24.26 a 18.5,18.5 0 0 0 0.11,-9.17 c -0.91,-3.86 -3.19,-6 -6,-7.79 A 28.29,28.29 0 0 0 25.44,3.3 35.87,35.87 0 0 0 15.15,3.08 c -3.74,0.54 -7.23,2 -9.54,6.18 A 34.53,34.53 0 0 0 2.77,16 c -1.37,4.48 0.81,8.12 3.37,10.45 2.56,2.33 5.46,3.07 7.92,5.17 a 5.34,5.34 0 0 0 1.67,0.73 c 4.6,1.77 9.21,3.5 13.79,5.32 a 13.48,13.48 0 0 1 2.85,1.62 c 1.11,0.8 1.74,3.26 1.35,4.76 a 29.83,29.83 0 0 1 -3,7.92 c -2,3.35 -3.88,6.81 -5.85,10.19 -1.22,2.08 -2.77,4 -3.72,6.19 -1.74,4.09 -3.67,8.14 -4.2,12.79 -0.39,3.4 0.29,4.89 2.93,6.2 a 2.25,2.25 0 0 0 1.14,0.21 48.56,48.56 0 0 0 5.53,-0.51 c 1.55,-0.28 3,-1 4.58,-1.39 2.38,-0.62 4.78,-1.15 7.17,-1.7 a 14.48,14.48 0 0 1 2.16,-0.34 22,22 0 0 1 4.13,-0.1 2,2 0 0 0 2.41,-1.29 5.36,5.36 0 0 0 0.85,-3.4 0.84,0.84 0 0 1 0,-0.45 c 1.14,-1.77 0.47,-3.84 0.66,-5.75 A 30.27,30.27 0 0 0 48.22,67.8 C 48.05,65.43 47.95,63.04 47.7,60.68 47.31,57.11 46.88,53.54 46.36,49.99 a 33,33 0 0 0 -1.12,-4.84 c -0.55,-1.81 0,-3 1.67,-2.81 1.67,0.19 3.4,0.24 5,-0.84 0.44,-0.29 1.15,0 1.76,0 0.26,1.75 -0.2,2.85 -1.52,3.44 -0.68,0.31 -1.33,0.72 -2,1 -1.55,0.69 -1.64,0.71 -1.37,2.7 0.65,4.86 1.55,9.68 2,14.56 0.42,4.41 0.95,8.85 0.44,13.32 -0.31,2.66 -0.36,5.4 -1.39,7.85 -0.62,1.48 -0.73,3.6 -3,3.73 -1.29,-1.24 -3,-1.23 -4.86,-1.34 -3.39,-0.19 -6.55,0.94 -9.79,1.66 -1.75,0.38 -3.48,0.92 -5.2,1.43 -2.89,0.85 -6,1.22 -8.95,-0.07 A 6.68,6.68 0 0 1 14.16,83 a 35.79,35.79 0 0 1 1,-5.11 33.78,33.78 0 0 1 3.15,-8.65 c 1.93,-3.92 4.23,-7.59 6.25,-11.46 0.84,-1.62 1.78,-3.2 2.67,-4.73 1.05,-1.79 1.82,-3.72 2.75,-5.55 a 7.27,7.27 0 0 0 0.79,-3.73 3.1,3.1 0 0 0 -2,-3 c -3.6,-1.37 -7.25,-2.55 -10.83,-4 -1.43,-0.56 -2.75,-1.52 -4.14,-2.23 -0.95,-0.49 -2,-0.85 -2.93,-1.29 A 12.19,12.19 0 0 1 6.38,30.4 8.17,8.17 0 0 0 3.78,28.4 5.84,5.84 0 0 1 0.78,24.59 12.79,12.79 0 0 1 0.38,17.37 47.69,47.69 0 0 1 2.81,9.81 15.92,15.92 0 0 1 8,3.35 16.16,16.16 0 0 1 18.94,0 75.28,75.28 0 0 1 27,0.58 c 2.52,0.45 5.11,0.85 7.46,2.26 1.4,0.84 2.9,1.45 4.33,2.21 4.27,2.27 6.32,6.24 6.81,11.59 a 17,17 0 0 1 -1,8.53 4.86,4.86 0 0 1 -1.74,2 1.76,1.76 0 0 1 -1.81,-0.12 3.62,3.62 0 0 1 -0.6,-2.05 c 0,-0.22 0.48,-0.63 0.81,-0.75 a 3.36,3.36 0 0 1 1.2,0.01 z"
         id="path12" />
    </g>
  </g>
</svg>
