<?xml version="1.0" encoding="UTF-8" standalone="no"?>
<svg
   xmlns:dc="http://purl.org/dc/elements/1.1/"
   xmlns:cc="http://creativecommons.org/ns#"
   xmlns:rdf="http://www.w3.org/1999/02/22-rdf-syntax-ns#"
   xmlns:svg="http://www.w3.org/2000/svg"
   xmlns="http://www.w3.org/2000/svg"
   xmlns:sodipodi="http://sodipodi.sourceforge.net/DTD/sodipodi-0.dtd"
   xmlns:inkscape="http://www.inkscape.org/namespaces/inkscape"
   viewBox="0 0 9.9999997 12.098185"
   version="1.1"
   id="svg80"
   sodipodi:docname="symbol6.svg"
   width="10"
   height="12.098185"
   inkscape:version="1.0.1 (c497b03c, 2020-09-10)">
  <metadata
     id="metadata86">
    <rdf:RDF>
      <cc:Work
         rdf:about="">
        <dc:format>image/svg+xml</dc:format>
        <dc:type
           rdf:resource="http://purl.org/dc/dcmitype/StillImage" />
      </cc:Work>
    </rdf:RDF>
  </metadata>
  <defs
     id="defs84" />
  <sodipodi:namedview
     pagecolor="#ffffff"
     bordercolor="#666666"
     borderopacity="1"
     objecttolerance="10"
     gridtolerance="10"
     guidetolerance="10"
     inkscape:pageopacity="0"
     inkscape:pageshadow="2"
     inkscape:window-width="1406"
     inkscape:window-height="856"
     id="namedview82"
     showgrid="false"
     inkscape:zoom="9.2618197"
     inkscape:cx="29.908352"
     inkscape:cy="36.18234"
     inkscape:window-x="34"
     inkscape:window-y="22"
     inkscape:window-maximized="1"
     inkscape:current-layer="svg80" />
  <title
     id="title74">Asset 33</title>
  <g
     id="Layer_2"
     transform="matrix(0.16715881,0,0,0.16715881,-5.0011115,-6.0469369)">
    <g
       id="Layer_1-2">
      <path
         d="m 49.63,71 c -0.45,0.32 -0.79,0.57 -1.13,0.79 -1.8,1.16 -2.84,0.56 -2.88,-1.81 0,-3.09 0.05,-6.17 0.06,-9.26 a 60.65,60.65 0 0 0 -0.59,-10.07 53.6,53.6 0 0 1 -0.47,-6 c -0.11,-1.9 -0.18,-3.81 -0.22,-5.71 0,-2.44 0,-4.88 -0.1,-7.31 a 75.43,75.43 0 0 1 0.55,-9.74 c 0.12,-1.35 -0.73,-2 -1.79,-1.38 a 1.16,1.16 0 0 0 -0.31,0.28 c -2,2.47 -4.76,2.53 -7.33,3.19 l -2.11,0.5 c 0.15,1.51 0.28,2.92 0.42,4.34 0.25,2.44 0.51,4.89 0.73,7.34 0.33,3.5 0.63,7 0.93,10.53 a 28.32,28.32 0 0 1 0.27,3.67 75.55,75.55 0 0 1 -2.17,15.91 9.19,9.19 0 0 1 -4.15,5.73 c -1.12,0.65 -1.91,0.34 -2.46,-1 -1.36,-3.24 -2.51,-6.54 -2.36,-10.26 A 16.29,16.29 0 0 0 24.18,58.27 C 24.08,57.44 24.08,56.6 23.94,55.79 23.58,53.71 23.27,51.61 22.73,49.6 A 4.22,4.22 0 0 0 20.27,46.72 28.54,28.54 0 0 0 14.74,45 C 11.4,44.47 8.01,44.3 4.64,43.9 A 5,5 0 0 1 1.5,42 4.88,4.88 0 0 1 0.93,35.63 63.09,63.09 0 0 1 5.56,29.5 C 6.27,28.66 7.4,28.31 8.29,27.64 A 21.85,21.85 0 0 1 20.12,23 28.79,28.79 0 0 0 24,22 c 1,-0.2 2,-0.16 3,-0.31 2,-0.3 2.24,-0.6 1.92,-2.76 a 20.13,20.13 0 0 1 0.53,-8.2 16,16 0 0 1 5.84,-9 9.58,9.58 0 0 1 6.6,-1.68 4.71,4.71 0 0 1 3.68,2.86 58.39,58.39 0 0 1 2.49,7.21 17.24,17.24 0 0 1 0.07,3.23 c 0.11,1.47 0.37,1.53 1.64,1.39 3,-0.34 5.95,-0.57 8.93,-0.78 0.35,0 0.71,0.33 1.13,0.55 a 2.94,2.94 0 0 1 -2.14,2.26 38.24,38.24 0 0 1 -4.48,1 c -1.62,0.33 -3.26,0.6 -5.07,0.94 -0.25,2.48 -0.58,4.82 -0.69,7.17 -0.14,3.16 -0.27,6.34 -0.14,9.5 0.2,4.84 0.6,9.67 1,14.5 0.47,6.29 1,12.57 1.47,18.86 A 17.68,17.68 0 0 1 49.63,71 Z M 29,65.88 29.66,65.82 a 23.86,23.86 0 0 0 1.56,-4.88 c 0.63,-6.21 1.48,-12.4 0.55,-18.71 -0.75,-5.15 -1.1,-10.37 -1.64,-15.55 -0.16,-1.56 -0.44,-1.89 -1.8,-1.69 -3.94,0.59 -7.88,1.21 -11.81,1.91 a 13.31,13.31 0 0 0 -3.6,1.1 23.46,23.46 0 0 0 -8.68,7.33 c -1.69,2.29 -1.24,4.2 1.3,4.86 a 27,27 0 0 0 5.91,0.89 34.37,34.37 0 0 1 8.09,0.9 11.52,11.52 0 0 1 4.91,2.81 c 2.33,2.22 2.4,5.37 2.68,8.41 0.28,3.04 0.31,6.14 0.66,9.18 A 15.4,15.4 0 0 0 29,65.88 Z M 32.85,21 c 1.55,-0.45 3,-0.52 4.07,-1.25 a 19.4,19.4 0 0 1 6.64,-2.53 2,2 0 0 0 1.68,-2.2 c 0,-1 -0.29,-1.92 -0.38,-2.89 A 13.57,13.57 0 0 0 42.28,4.9 3.7,3.7 0 0 0 37.88,3.76 10.72,10.72 0 0 0 33.39,8.44 c -1.96,4.12 -1.8,8.22 -0.54,12.56 z"
         id="path76" />
    </g>
  </g>
</svg>
