<svg xmlns="http://www.w3.org/2000/svg" viewBox="0 0 35.48 63.97"><title>Asset 30</title><g id="Layer_2"><g id="Layer_1-2"><path d="M8.32,31.65c-.6-1.92-1.14-3.9-1.83-5.81A6.28,6.28,0,0,0,4.92,23c-.66-.59-.88-2-1.13-3.07-.49-2.16-2-3.87-2-6.25a.61.61,0,0,0-.14-.42c-2.29-2.12-.21-4.44-.21-6.66,0-.38.39-.81.67-1.12,1-1.13,2.09-.93,2.65.61C6.07,9.7,7.34,13.33,8.52,17c1.07,3.29,2,6.64,3,10.1.42-.27.77-.38,1-.64a52.14,52.14,0,0,0,4.66-7,32.48,32.48,0,0,0,2.59-8.56c.34-1.78.58-3.59,1-5.34a2,2,0,0,1,1.14-1c.13-.06.73.67.75,1.07a10.35,10.35,0,0,1-.13,3.58A17.74,17.74,0,0,0,22,14.78c.24,3.83,0,7.72.88,11.49q.91,3.87,1.76,7.76c.54,2.45,1,4.94,1.56,7.37.73,3,1.59,6,2.51,9.38a15.09,15.09,0,0,0,1.59-6.25c.1-1.13.26-2.25.39-3.38.16-1.37.36-2.73.49-4.1.42-4.58,1-9.13.39-13.77a43.51,43.51,0,0,1,0-5.71c0-.92-.06-1.83-.05-2.74,0-3.05-.09-6.1.11-9.13A43.61,43.61,0,0,1,32.81,0l2.67.3a40.23,40.23,0,0,1-.9,4.31,22.77,22.77,0,0,0-.72,7.75c.1,7,.41,14,.3,20.93-.09,4.9-.66,9.8-1.18,14.68-.29,2.73-.89,5.42-1.42,8.11a8.43,8.43,0,0,1-2,4.43c-1.2,1.22-2.28.87-2.58-.88-.57-3.31-1-6.62-1.92-9.88-1.07-3.94-1.61-8.07-2.46-12.09-.95-4.46-2-8.9-3-13.35a7.28,7.28,0,0,0-.41-1l-6.49,8.4a18,18,0,0,0,1.73,7.69,18.55,18.55,0,0,1,1.74,7.42,4.9,4.9,0,0,0,.15,1.6c1.17,2.88,1,6,1.45,9.07a13.88,13.88,0,0,1-.37,4.78c-.31,1.55-2.82,2.21-4.1,1.15a40.32,40.32,0,0,1-3.53-3.27C8.15,58.43,6.55,56.61,5,54.75c-1.34-1.59-2.6-3.28-3.88-4.93a5.81,5.81,0,0,1-.8-5.38,20.73,20.73,0,0,1,3.08-5.81c1-1.45,2.07-2.77,3.08-4.18C7.06,33.63,7.59,32.75,8.32,31.65Zm6.6,23c-1.3-.43-1.54-1.77-1.75-3-.3-1.79-.46-3.6-.71-5.4a12.49,12.49,0,0,0-.62-3.25c-.83-1.8-1.9-3.44-3.11-5.57L7,41.05c-.19.41-.29,1-.59,1.19-1.6,1.25-1.83,3.48-2.77,5.2a2,2,0,0,0,.1,1.63c1.64,2,3.35,3.92,5.1,5.79,1.06,1.14,2.33,2,3.32,3.24a3.77,3.77,0,0,0,3,1.32C15.09,57.79,15,56.35,14.92,54.6Z"></path></g></g></svg>