<?xml version="1.0" encoding="UTF-8" standalone="no"?>
<svg
   xmlns:dc="http://purl.org/dc/elements/1.1/"
   xmlns:cc="http://creativecommons.org/ns#"
   xmlns:rdf="http://www.w3.org/1999/02/22-rdf-syntax-ns#"
   xmlns:svg="http://www.w3.org/2000/svg"
   xmlns="http://www.w3.org/2000/svg"
   xmlns:sodipodi="http://sodipodi.sourceforge.net/DTD/sodipodi-0.dtd"
   xmlns:inkscape="http://www.inkscape.org/namespaces/inkscape"
   viewBox="0 0 9.9999997 17.320034"
   version="1.1"
   id="svg108"
   sodipodi:docname="symbol8.svg"
   width="10"
   height="17.320034"
   inkscape:version="1.0.1 (c497b03c, 2020-09-10)">
  <metadata
     id="metadata114">
    <rdf:RDF>
      <cc:Work
         rdf:about="">
        <dc:format>image/svg+xml</dc:format>
        <dc:type
           rdf:resource="http://purl.org/dc/dcmitype/StillImage" />
      </cc:Work>
    </rdf:RDF>
  </metadata>
  <defs
     id="defs112" />
  <sodipodi:namedview
     pagecolor="#ffffff"
     bordercolor="#666666"
     borderopacity="1"
     objecttolerance="10"
     gridtolerance="10"
     guidetolerance="10"
     inkscape:pageopacity="0"
     inkscape:pageshadow="2"
     inkscape:window-width="1406"
     inkscape:window-height="856"
     id="namedview110"
     showgrid="false"
     inkscape:zoom="10.591211"
     inkscape:cx="18.315001"
     inkscape:cy="31.630384"
     inkscape:window-x="34"
     inkscape:window-y="22"
     inkscape:window-maximized="1"
     inkscape:current-layer="svg108" />
  <title
     id="title102">Asset 26</title>
  <g
     id="Layer_2"
     transform="matrix(0.27358707,0,0,0.27358707,-5,-8.6598947)">
    <g
       id="Layer_1-2">
      <path
         d="m 0,23.09 a 53.2,53.2 0 0 1 3.21,-6 c 0.65,-0.91 1.93,-1.29 3,-1.74 A 49.17,49.17 0 0 1 17.1,12 c 2.48,-0.42 5.19,-0.75 7.32,1.77 a 7.89,7.89 0 0 1 2,4.1 c 0.33,2.74 0.29,5.53 0.45,8.29 0.22,3.94 -0.92,7.57 -1.74,11.28 C 24.6,40 24,42.5 23.49,45 a 10.26,10.26 0 0 0 1.92,8.6 20,20 0 0 0 6,5.32 c 0.95,0.57 1.42,0.33 1.88,-0.81 A 18,18 0 0 0 34,50.63 C 33.9,48.05 33.58,45.47 33.35,42.89 A 7.79,7.79 0 0 0 33.23,41.51 46.26,46.26 0 0 1 32.1,30.81 c -0.1,-3.08 -0.27,-6.16 -0.38,-9.24 -0.09,-2.37 0,-4.76 -0.23,-7.11 -0.4,-4.11 -2,-7.43 -5.27,-9.45 A 3.55,3.55 0 0 0 24.53,4.44 C 20.72,4.28 16.86,4 13,4.14 10.16,4.23 7.27,4.25 4.51,5.27 A 1.21,1.21 0 0 1 3.92,5.35 C 3.3,5.23 2.47,5.35 2.13,4.87 1.49,4.05 1.85,2.97 2.26,2.07 A 1.25,1.25 0 0 1 4,1.41 2.47,2.47 0 0 0 5.91,1.32 16.16,16.16 0 0 1 8.69,0.84 C 12.2,0.51 15.7,0 19.21,0 a 29.64,29.64 0 0 1 7.48,0.92 c 2.78,0.7 4.39,3.29 5.73,6 a 23.76,23.76 0 0 1 2,10.85 c 0,3.32 -0.16,6.66 0,10 0.24,4.13 0.77,8.24 1.18,12.35 0.08,0.84 0.17,1.69 0.23,2.53 0.36,4.59 1.05,9.17 0.54,13.79 a 15.68,15.68 0 0 1 -1,4.64 c -1,2.28 -2.55,2.82 -4.51,1.57 A 34.92,34.92 0 0 1 25.86,58.5 25.86,25.86 0 0 1 22.81,54.84 7,7 0 0 1 21.18,50 c 0.09,-1.11 -0.34,-2.25 -0.36,-3.38 a 24.24,24.24 0 0 1 1.64,-8.25 38.3,38.3 0 0 0 2,-15 c -0.11,-1.66 0,-3.27 -0.77,-4.88 A 4.55,4.55 0 0 0 19.9,15.63 13.76,13.76 0 0 0 13.79,16.18 C 11.49,17 9.22,18 6.91,18.91 a 3.6,3.6 0 0 0 -2.15,2.21 12.23,12.23 0 0 1 -1.3,2.32 C 2.54,24.79 1.52,24.77 0,23.09 Z"
         id="path104" />
    </g>
  </g>
</svg>
