<svg xmlns="http://www.w3.org/2000/svg" viewBox="0 0 36.63 63.26"><title>Asset 26</title><g id="Layer_2"><g id="Layer_1-2"><path d="M0,23.09a53.2,53.2,0,0,1,3.21-6c.65-.91,1.93-1.29,3-1.74A49.17,49.17,0,0,1,17.1,12c2.48-.42,5.19-.75,7.32,1.77a7.89,7.89,0,0,1,2,4.1c.33,2.74.29,5.53.45,8.29.22,3.94-.92,7.57-1.74,11.28C24.6,40,24,42.5,23.49,45a10.26,10.26,0,0,0,1.92,8.6,20,20,0,0,0,6,5.32c.95.57,1.42.33,1.88-.81A18,18,0,0,0,34,50.63c-.1-2.58-.42-5.16-.65-7.74a7.79,7.79,0,0,0-.12-1.38,46.26,46.26,0,0,1-1.13-10.7c-.1-3.08-.27-6.16-.38-9.24-.09-2.37,0-4.76-.23-7.11-.4-4.11-2-7.43-5.27-9.45a3.55,3.55,0,0,0-1.69-.57C20.72,4.28,16.86,4,13,4.14c-2.84.09-5.73.11-8.49,1.13a1.21,1.21,0,0,1-.59.08c-.62-.12-1.45,0-1.79-.48-.64-.82-.28-1.9.13-2.8A1.25,1.25,0,0,1,4,1.41a2.47,2.47,0,0,0,1.91-.09A16.16,16.16,0,0,1,8.69.84C12.2.51,15.7,0,19.21,0a29.64,29.64,0,0,1,7.48.92c2.78.7,4.39,3.29,5.73,6a23.76,23.76,0,0,1,2,10.85c0,3.32-.16,6.66,0,10,.24,4.13.77,8.24,1.18,12.35.08.84.17,1.69.23,2.53.36,4.59,1.05,9.17.54,13.79a15.68,15.68,0,0,1-1,4.64c-1,2.28-2.55,2.82-4.51,1.57a34.92,34.92,0,0,1-5-4.15,25.86,25.86,0,0,1-3.05-3.66A7,7,0,0,1,21.18,50c.09-1.11-.34-2.25-.36-3.38a24.24,24.24,0,0,1,1.64-8.25,38.3,38.3,0,0,0,2-15c-.11-1.66,0-3.27-.77-4.88a4.55,4.55,0,0,0-3.79-2.86,13.76,13.76,0,0,0-6.11.55C11.49,17,9.22,18,6.91,18.91a3.6,3.6,0,0,0-2.15,2.21,12.23,12.23,0,0,1-1.3,2.32C2.54,24.79,1.52,24.77,0,23.09Z"></path></g></g></svg>