<?xml version="1.0" encoding="UTF-8" standalone="no"?>
<svg
   xmlns:dc="http://purl.org/dc/elements/1.1/"
   xmlns:cc="http://creativecommons.org/ns#"
   xmlns:rdf="http://www.w3.org/1999/02/22-rdf-syntax-ns#"
   xmlns:svg="http://www.w3.org/2000/svg"
   xmlns="http://www.w3.org/2000/svg"
   xmlns:sodipodi="http://sodipodi.sourceforge.net/DTD/sodipodi-0.dtd"
   xmlns:inkscape="http://www.inkscape.org/namespaces/inkscape"
   viewBox="0 0 10 18.014784"
   version="1.1"
   id="svg52"
   sodipodi:docname="symbol4.svg"
   width="10"
   height="18.014784"
   inkscape:version="1.0.1 (c497b03c, 2020-09-10)">
  <metadata
     id="metadata58">
    <rdf:RDF>
      <cc:Work
         rdf:about="">
        <dc:format>image/svg+xml</dc:format>
        <dc:type
           rdf:resource="http://purl.org/dc/dcmitype/StillImage" />
      </cc:Work>
    </rdf:RDF>
  </metadata>
  <defs
     id="defs56" />
  <sodipodi:namedview
     pagecolor="#ffffff"
     bordercolor="#666666"
     borderopacity="1"
     objecttolerance="10"
     gridtolerance="10"
     guidetolerance="10"
     inkscape:pageopacity="0"
     inkscape:pageshadow="2"
     inkscape:window-width="1406"
     inkscape:window-height="856"
     id="namedview54"
     showgrid="false"
     inkscape:zoom="10.473659"
     inkscape:cx="17.751638"
     inkscape:cy="31.985001"
     inkscape:window-x="34"
     inkscape:window-y="22"
     inkscape:window-maximized="1"
     inkscape:current-layer="svg52" />
  <title
     id="title46">Asset 30</title>
  <g
     id="Layer_2"
     transform="matrix(0.2817565,0,0,0.2817565,-4.9967207,-8.007)">
    <g
       id="Layer_1-2">
      <path
         d="M 8.32,31.65 C 7.72,29.73 7.18,27.75 6.49,25.84 A 6.28,6.28 0 0 0 4.92,23 C 4.26,22.41 4.04,21 3.79,19.93 3.3,17.77 1.79,16.06 1.79,13.68 A 0.61,0.61 0 0 0 1.65,13.26 C -0.64,11.14 1.44,8.82 1.44,6.6 1.44,6.22 1.83,5.79 2.11,5.48 3.11,4.35 4.2,4.55 4.76,6.09 6.07,9.7 7.34,13.33 8.52,17 c 1.07,3.29 2,6.64 3,10.1 0.42,-0.27 0.77,-0.38 1,-0.64 a 52.14,52.14 0 0 0 4.66,-7 32.48,32.48 0 0 0 2.59,-8.56 c 0.34,-1.78 0.58,-3.59 1,-5.34 a 2,2 0 0 1 1.14,-1 c 0.13,-0.06 0.73,0.67 0.75,1.07 A 10.35,10.35 0 0 1 22.53,9.21 17.74,17.74 0 0 0 22,14.78 c 0.24,3.83 0,7.72 0.88,11.49 q 0.91,3.87 1.76,7.76 c 0.54,2.45 1,4.94 1.56,7.37 0.73,3 1.59,6 2.51,9.38 a 15.09,15.09 0 0 0 1.59,-6.25 c 0.1,-1.13 0.26,-2.25 0.39,-3.38 0.16,-1.37 0.36,-2.73 0.49,-4.1 0.42,-4.58 1,-9.13 0.39,-13.77 a 43.51,43.51 0 0 1 0,-5.71 c 0,-0.92 -0.06,-1.83 -0.05,-2.74 0,-3.05 -0.09,-6.1 0.11,-9.13 A 43.61,43.61 0 0 1 32.81,0 l 2.67,0.3 a 40.23,40.23 0 0 1 -0.9,4.31 22.77,22.77 0 0 0 -0.72,7.75 c 0.1,7 0.41,14 0.3,20.93 -0.09,4.9 -0.66,9.8 -1.18,14.68 -0.29,2.73 -0.89,5.42 -1.42,8.11 a 8.43,8.43 0 0 1 -2,4.43 c -1.2,1.22 -2.28,0.87 -2.58,-0.88 -0.57,-3.31 -1,-6.62 -1.92,-9.88 -1.07,-3.94 -1.61,-8.07 -2.46,-12.09 -0.95,-4.46 -2,-8.9 -3,-13.35 a 7.28,7.28 0 0 0 -0.41,-1 l -6.49,8.4 a 18,18 0 0 0 1.73,7.69 18.55,18.55 0 0 1 1.74,7.42 4.9,4.9 0 0 0 0.15,1.6 c 1.17,2.88 1,6 1.45,9.07 a 13.88,13.88 0 0 1 -0.37,4.78 c -0.31,1.55 -2.82,2.21 -4.1,1.15 A 40.32,40.32 0 0 1 9.77,60.15 C 8.15,58.43 6.55,56.61 5,54.75 3.66,53.16 2.4,51.47 1.12,49.82 A 5.81,5.81 0 0 1 0.32,44.44 20.73,20.73 0 0 1 3.4,38.63 c 1,-1.45 2.07,-2.77 3.08,-4.18 0.58,-0.82 1.11,-1.7 1.84,-2.8 z m 6.6,23 c -1.3,-0.43 -1.54,-1.77 -1.75,-3 -0.3,-1.79 -0.46,-3.6 -0.71,-5.4 A 12.49,12.49 0 0 0 11.84,43 C 11.01,41.2 9.94,39.56 8.73,37.43 L 7,41.05 c -0.19,0.41 -0.29,1 -0.59,1.19 -1.6,1.25 -1.83,3.48 -2.77,5.2 a 2,2 0 0 0 0.1,1.63 c 1.64,2 3.35,3.92 5.1,5.79 1.06,1.14 2.33,2 3.32,3.24 a 3.77,3.77 0 0 0 3,1.32 C 15.09,57.79 15,56.35 14.92,54.6 Z"
         id="path48" />
    </g>
  </g>
</svg>
