<?xml version="1.0" encoding="UTF-8" standalone="no"?>
<svg
   xmlns:dc="http://purl.org/dc/elements/1.1/"
   xmlns:cc="http://creativecommons.org/ns#"
   xmlns:rdf="http://www.w3.org/1999/02/22-rdf-syntax-ns#"
   xmlns:svg="http://www.w3.org/2000/svg"
   xmlns="http://www.w3.org/2000/svg"
   xmlns:sodipodi="http://sodipodi.sourceforge.net/DTD/sodipodi-0.dtd"
   xmlns:inkscape="http://www.inkscape.org/namespaces/inkscape"
   viewBox="0 0 10 30.011938"
   version="1.1"
   id="svg16"
   sodipodi:docname="symbol2.svg"
   width="10"
   height="30.011938"
   inkscape:version="1.0.1 (c497b03c, 2020-09-10)">
  <metadata
     id="metadata22">
    <rdf:RDF>
      <cc:Work
         rdf:about="">
        <dc:format>image/svg+xml</dc:format>
        <dc:type
           rdf:resource="http://purl.org/dc/dcmitype/StillImage" />
      </cc:Work>
    </rdf:RDF>
  </metadata>
  <defs
     id="defs20" />
  <sodipodi:namedview
     pagecolor="#ffffff"
     bordercolor="#666666"
     borderopacity="1"
     objecttolerance="10"
     gridtolerance="10"
     guidetolerance="10"
     inkscape:pageopacity="0"
     inkscape:pageshadow="2"
     inkscape:window-width="1406"
     inkscape:window-height="856"
     id="namedview18"
     showgrid="false"
     inkscape:zoom="5.3263375"
     inkscape:cx="28.025209"
     inkscape:cy="45.420895"
     inkscape:window-x="34"
     inkscape:window-y="22"
     inkscape:window-maximized="1"
     inkscape:current-layer="svg16" />
  <title
     id="title10">Asset 31</title>
  <g
     id="Layer_2"
     transform="matrix(0.23854034,0,0,0.23854034,-5.0003741,-15.006141)">
    <g
       id="Layer_1-2">
      <path
         d="M 8.07,31.82 6.85,33.36 C 6.37,32.93 5.48,32.55 5.36,31.95 4.81,29.39 3.9,26.79 5,24.11 A 1.21,1.21 0 0 0 5.12,23.67 C 5,20.33 6.54,17.62 7.79,14.9 a 19.87,19.87 0 0 1 3.85,-5.26 78.28,78.28 0 0 1 7,-6.43 11.89,11.89 0 0 1 3.86,-1.75 C 26.11,0.3 29.79,-0.69 33.49,0.63 a 10.93,10.93 0 0 1 7.26,7.49 23.43,23.43 0 0 1 -2.75,20.3 19,19 0 0 1 -11.6,8.77 28.58,28.58 0 0 0 -11.5,5.52 28.83,28.83 0 0 0 -4.2,5.08 30.76,30.76 0 0 0 -1.83,3.05 7.54,7.54 0 0 0 -0.7,1.39 c -0.75,2.44 -1.47,4.9 -2.2,7.37 a 1.93,1.93 0 0 0 2.21,1.17 c 2.35,-0.42 4.71,-0.89 7.07,-1.2 2.36,-0.31 4.75,-0.57 7.2,-0.65 a 50.63,50.63 0 0 1 7.18,0.21 22.63,22.63 0 0 1 5,1.37 c 2.14,0.8 2.76,3 2.08,5.47 -1,3.75 -3.4,6.17 -5.71,8.7 -2.76,3 -5.59,5.93 -8.36,8.92 a 87.59,87.59 0 0 0 -9.23,12.74 127.4,127.4 0 0 0 -7,13 45.58,45.58 0 0 0 -3.21,10.37 c -0.35,1.68 0.28,2.6 1.76,2.49 a 11.17,11.17 0 0 0 4.4,-1.26 c 2.53,-1.32 5.23,-2.18 7.86,-3.26 1.81,-0.74 3.59,-1.61 5.43,-2.27 a 25.3,25.3 0 0 1 4.83,-1.33 71.5,71.5 0 0 1 9.52,-1.14 17,17 0 0 0 3,-0.61 4,4 0 0 1 0.67,0.42 2.67,2.67 0 0 1 1.1,3.11 2.71,2.71 0 0 1 -3.18,1.57 8.07,8.07 0 0 0 -1.93,-0.39 c -2.12,-0.09 -4.23,-0.13 -6.35,-0.17 a 2.3,2.3 0 0 0 -0.78,0.11 c -4.8,1.7 -9.62,3.35 -14.39,5.15 C 13,122.93 11,124.21 8.82,125 a 12.79,12.79 0 0 1 -4.87,0.81 c -3.31,-0.2 -4.69,-2.9 -3.56,-6.59 0.66,-2.16 1.43,-4.28 2.14,-6.43 a 42.83,42.83 0 0 1 1.4,-4.28 81.69,81.69 0 0 1 5,-10.16 c 2.27,-3.58 4.29,-7.42 7.1,-10.54 0.69,-0.77 1.07,-1.89 1.72,-2.72 a 107.9,107.9 0 0 1 8.72,-10 c 1.84,-1.84 3.4,-4 5.09,-6.1 a 18.32,18.32 0 0 0 1.6,-2 c 1,-1.68 0.71,-2.53 -0.77,-3.65 A 7.48,7.48 0 0 0 28,62 58,58 0 0 0 19.46,62.05 c -3.75,0.32 -7.48,1 -11.23,1.43 A 12.74,12.74 0 0 1 4.86,63.28 1.94,1.94 0 0 1 3.21,60.9 36.11,36.11 0 0 1 4.5,55.14 a 42.66,42.66 0 0 1 2,-4.72 30,30 0 0 1 6.8,-9.7 c 1.34,-1.24 2.88,-1.83 4.27,-2.82 2.69,-1.93 5.73,-2.67 8.73,-3.59 a 10.82,10.82 0 0 0 2.77,-1.15 c 2.06,-1.33 4.19,-2.54 5.74,-4.79 a 48.24,48.24 0 0 0 4,-6.87 c 0.46,-1 1.09,-2 0.56,-3.22 -0.08,-0.17 0,-0.45 0.08,-0.67 a 13.56,13.56 0 0 0 -2.3,-11 9.87,9.87 0 0 0 -4,-3.17 10.6,10.6 0 0 0 -4.51,-0.72 17.76,17.76 0 0 0 -12.4,5.3 31.62,31.62 0 0 0 -7,8.68 A 18.74,18.74 0 0 0 8,31.31 2.37,2.37 0 0 1 8.07,31.82 Z"
         id="path12" />
    </g>
  </g>
</svg>
